<?xml version="1.0" encoding="UTF-8" standalone="no"?>
<!-- Created with Inkscape (http://www.inkscape.org/) -->

<svg
   xmlns:dc="http://purl.org/dc/elements/1.1/"
   xmlns:cc="http://creativecommons.org/ns#"
   xmlns:rdf="http://www.w3.org/1999/02/22-rdf-syntax-ns#"
   xmlns:svg="http://www.w3.org/2000/svg"
   xmlns="http://www.w3.org/2000/svg"
   xmlns:sodipodi="http://sodipodi.sourceforge.net/DTD/sodipodi-0.dtd"
   xmlns:inkscape="http://www.inkscape.org/namespaces/inkscape"
   width="55.940189mm"
   height="47.54948mm"
   viewBox="0 0 55.940189 47.54948"
   version="1.1"
   id="svg902"
   inkscape:version="0.92.5 (2060ec1f9f, 2020-04-08)"
   sodipodi:docname="logo.svg">
  <defs
     id="defs896" />
  <sodipodi:namedview
     id="base"
     pagecolor="#ffffff"
     bordercolor="#666666"
     borderopacity="1.0"
     inkscape:pageopacity="0.0"
     inkscape:pageshadow="2"
     inkscape:zoom="0.35"
     inkscape:cx="-554.28672"
     inkscape:cy="151.28601"
     inkscape:document-units="mm"
     inkscape:current-layer="layer1"
     showgrid="false"
     fit-margin-top="0"
     fit-margin-left="0"
     fit-margin-right="0"
     fit-margin-bottom="0"
     inkscape:window-width="1920"
     inkscape:window-height="1048"
     inkscape:window-x="0"
     inkscape:window-y="32"
     inkscape:window-maximized="1" />
  <metadata
     id="metadata899">
    <rdf:RDF>
      <cc:Work
         rdf:about="">
        <dc:format>image/svg+xml</dc:format>
        <dc:type
           rdf:resource="http://purl.org/dc/dcmitype/StillImage" />
        <dc:title></dc:title>
      </cc:Work>
    </rdf:RDF>
  </metadata>
  <g
     inkscape:label="Layer 1"
     inkscape:groupmode="layer"
     id="layer1"
     transform="translate(-122.46455,-141.31161)">
    <path
       style="fill:#4895fb;stroke-width:1.39850211"
       d="m 144.1036,188.86067 c -1.13732,-0.31556 -2.66541,-0.88567 -3.6495,-2.97346 -1.35118,-2.86642 -1.34901,-2.80622 -0.16597,-4.55652 1.64089,-2.4275 4.60219,-6.74526 4.60219,-7.9236 0,-0.74274 -0.73645,-1.32824 -2.5607,-2.03588 -3.93054,-1.52461 -9.25839,-4.10211 -12.00462,-6.12843 -3.36365,-2.48194 -6.50519,-7.13614 -7.48378,-10.37769 -0.68793,-2.27897 -0.45933,-2.77117 0.89904,-1.93392 7.12642,4.09095 9.35348,4.73179 16.41594,5.37225 4.38791,-0.19081 7.81266,-2.78444 7.64087,-5.87281 -0.1406,-2.32966 -1.68148,-4.31163 -2.61567,-7.2937 -0.52698,-1.68175 -0.23363,-2.271 -0.13796,-2.9168 0.0661,-0.44505 0.23627,-0.85395 0.3774,-0.9085 0.77784,0.43977 1.29425,1.20455 2.04133,1.49955 1.76774,0.69807 3.63195,0.70754 5.50942,1.53089 1.9196,0.98171 2.77403,1.96706 3.20138,3.72545 0.3071,1.26275 1.14641,2.11548 2.01347,2.96082 0.4107,0.40066 0.74713,0.83297 0.74713,0.96089 0,0.65019 -2.12204,0.52973 -3.86679,0.037 -1.53396,-0.43343 -1.97314,1.50922 -1.81552,2.91283 0.23574,3.73174 5.09486,3.04021 9.25585,3.36475 3.47021,0.27063 9.38869,-0.18499 13.88564,-2.11659 0.94185,-0.40436 1.84718,-0.70723 2.01199,-0.67266 -1.53385,6.571 -8.1308,12.16536 -13.83188,14.5622 -2.81219,1.13663 -6.87238,2.43321 -8.0919,2.58412 -3.03202,0.37528 -4.07145,0.77202 -4.56159,1.74168 -0.55875,1.10524 -1.37993,6.19344 -1.68444,10.06293 -0.72831,3.2379 -4.03514,4.37141 -6.13138,4.39562 z"
       id="path1390"
       inkscape:connector-curvature="0" />
  </g>
</svg>
