<?xml version="1.0" encoding="UTF-8" standalone="no"?>
<!-- Created with Inkscape (http://www.inkscape.org/) -->

<svg
   version="1.1"
   id="svg2"
   width="449.91699"
   height="250.50957"
   viewBox="0 0 449.91701 250.50958"
   sodipodi:docname="logo.svg"
   inkscape:version="1.2 (dc2aedaf03, 2022-05-15)"
   xmlns:inkscape="http://www.inkscape.org/namespaces/inkscape"
   xmlns:sodipodi="http://sodipodi.sourceforge.net/DTD/sodipodi-0.dtd"
   xmlns="http://www.w3.org/2000/svg"
   xmlns:svg="http://www.w3.org/2000/svg">
  <defs
     id="defs6">
    <clipPath
       clipPathUnits="userSpaceOnUse"
       id="clipPath48">
      <path
         d="m 4802.42,6333.46 56.66,-218.03 c 0.61,-2.35 0.18,-4.85 -1.19,-6.85 l -42.83,-62.89 c -1.3,-1.91 -4.2,-1.59 -5.05,0.55 l -140.11,350.94 c -0.93,3.54 2.52,6.76 5.98,5.57 44.85,-15.49 86.57,-37.73 123.96,-65.46 1.27,-0.94 2.18,-2.3 2.58,-3.83 z"
         id="path46" />
    </clipPath>
    <linearGradient
       x1="0"
       y1="0"
       x2="1"
       y2="0"
       gradientUnits="userSpaceOnUse"
       gradientTransform="matrix(-1594.18,1e-7,-1e-7,-1594.18,6573.41,6223.72)"
       spreadMethod="pad"
       id="linearGradient56">
      <stop
         style="stop-opacity:1;stop-color:#00b5ff"
         offset="0"
         id="stop50" />
      <stop
         style="stop-opacity:1;stop-color:#0073ff"
         offset="0.5"
         id="stop52" />
      <stop
         style="stop-opacity:1;stop-color:#2546cb"
         offset="1"
         id="stop54" />
    </linearGradient>
    <clipPath
       clipPathUnits="userSpaceOnUse"
       id="clipPath66">
      <path
         d="m 4776.22,5624 c -0.63,133.91 84.8,123.89 138.36,165.91 2.02,1.6 5.08,0.55 5.7,-1.95 33.53,-137.8 -79.16,-146.91 -139.4,-167.36 -2.36,-0.84 -4.66,0.97 -4.66,3.4 z m -722.05,-784.23 c 67.83,-77.56 167.51,-126.6 278.73,-126.6 178.15,0 326.81,125.69 362.35,293.27 0.28,1.32 1.11,2.5 2.23,3.27 l 311.21,131.96 c 0.98,0.62 2.09,0.9 3.2,0.83 244.75,-14.86 470.78,147.74 531.69,391.82 2.5,9.99 17.08,8.8 17.65,-1.48 5.43,-97.04 -11.14,-224.6 -63.66,-322.1 l 612.84,-0.21 c 167.78,0.07 382.86,105.8 396.29,312.47 0.48,7.79 -5.64,14.4 -13.43,14.4 l -608.73,0.07 c -17.38,0 -31.28,14.85 -29.72,32.72 1.36,15.57 15.24,27.1 30.88,27.1 h 671.71 c 166.87,0 389.68,104.76 403.1,318.04 0.49,7.72 -5.63,14.4 -13.42,14.4 l -939.08,0.07 c -8.28,0 -15.72,3.4 -21.08,8.83 -5.42,5.29 -8.76,12.8 -8.76,21.08 0,16.48 13.36,29.84 29.84,29.84 l 945.69,-0.42 c 207.71,0 454.3,135.85 463.9,368.12 0.28,7.65 -5.84,14.05 -13.49,14.12 l -2227.15,0.28 c -6.19,0 -11.06,-5.15 -10.92,-11.41 1.18,-44.8 -2.99,-86.67 -11.13,-127.37 -0.83,-4.03 -6.54,-4.1 -7.37,-0.07 -26.02,129.67 -92.45,330.14 -367.77,359.15 -4.25,0.42 -8.07,-2.37 -6.96,-6.47 l 122.92,-482.62 c 0.34,-1.53 0.07,-3.13 -0.84,-4.45 L 4051.11,4893.82 c -11.61,-16.56 -10.22,-38.82 3.06,-54.05 z"
         id="path64" />
    </clipPath>
    <linearGradient
       x1="-0.42722008"
       y1="-0.39521232"
       x2="1.4851968"
       y2="0.51891714"
       gradientUnits="userSpaceOnUse"
       gradientTransform="matrix(-1594.18,1e-7,-1e-7,-1594.18,6573.41,5652.58)"
       spreadMethod="pad"
       id="linearGradient74">
      <stop
         style="stop-opacity:1;stop-color:#ff00ff"
         offset="0"
         id="stop68" />
      <stop
         style="stop-opacity:1;stop-color:#0000ff"
         offset="0.5"
         id="stop70" />
      <stop
         style="stop-opacity:1;stop-color:#00ffff"
         offset="1"
         id="stop72" />
    </linearGradient>
  </defs>
  <sodipodi:namedview
     id="namedview4"
     pagecolor="#ffffff"
     bordercolor="#000000"
     borderopacity="0.25"
     inkscape:showpageshadow="2"
     inkscape:pageopacity="0.0"
     inkscape:pagecheckerboard="0"
     inkscape:deskcolor="#d1d1d1"
     showgrid="false"
     inkscape:zoom="0.78137758"
     inkscape:cx="200.92719"
     inkscape:cy="152.93503"
     inkscape:window-width="1920"
     inkscape:window-height="1080"
     inkscape:window-x="0"
     inkscape:window-y="-36"
     inkscape:window-maximized="1"
     inkscape:current-layer="g12">
    <inkscape:page
       x="0"
       y="0"
       id="page8"
       width="449.91702"
       height="250.50958" />
  </sodipodi:namedview>
  <g
     id="g10"
     inkscape:groupmode="layer"
     inkscape:label="Page 1"
     transform="matrix(1.3333333,0,0,-1.3333333,-264.60264,904.14802)">
    <g
       id="g12"
       transform="scale(0.1)">
      <g
         id="g323"
         transform="matrix(-1,0,0,1,9402.1291,189.11859)">
        <g
           id="g42">
          <g
             id="g44"
             clip-path="url(#clipPath48)">
            <path
               d="m 4802.42,6333.46 56.66,-218.03 c 0.61,-2.35 0.18,-4.85 -1.19,-6.85 l -42.83,-62.89 c -1.3,-1.91 -4.2,-1.59 -5.05,0.55 l -140.11,350.94 c -0.93,3.54 2.52,6.76 5.98,5.57 44.85,-15.49 86.57,-37.73 123.96,-65.46 1.27,-0.94 2.18,-2.3 2.58,-3.83"
               style="fill:url(#linearGradient56);fill-opacity:1;fill-rule:nonzero;stroke:none"
               id="path58" />
          </g>
        </g>
        <g
           id="g60">
          <g
             id="g62"
             clip-path="url(#clipPath66)">
            <path
               d="m 4054.17,4839.77 c 67.83,-77.56 167.51,-126.6 278.73,-126.6 178.15,0 326.81,125.69 362.35,293.27 0.28,1.32 1.11,2.5 2.23,3.27 l 311.21,131.96 c 0.98,0.62 2.09,0.9 3.2,0.83 244.75,-14.86 470.78,147.74 531.69,391.82 2.5,9.99 17.08,8.8 17.65,-1.48 5.43,-97.04 -11.14,-224.6 -63.66,-322.1 l 612.84,-0.21 c 167.78,0.07 382.86,105.8 396.29,312.47 0.48,7.79 -5.64,14.4 -13.43,14.4 l -608.73,0.07 c -17.38,0 -31.28,14.85 -29.72,32.72 1.36,15.57 15.24,27.1 30.88,27.1 h 671.71 c 166.87,0 389.68,104.76 403.1,318.04 0.49,7.72 -5.63,14.4 -13.42,14.4 l -939.08,0.07 c -8.28,0 -15.72,3.4 -21.08,8.83 -5.42,5.29 -8.76,12.8 -8.76,21.08 0,16.48 13.36,29.84 29.84,29.84 l 945.69,-0.42 c 207.71,0 454.3,135.85 463.9,368.12 0.28,7.65 -5.84,14.05 -13.49,14.12 l -2227.15,0.28 c -6.19,0 -11.06,-5.15 -10.92,-11.41 1.18,-44.8 -2.99,-86.67 -11.13,-127.37 -0.83,-4.03 -6.54,-4.1 -7.37,-0.07 -26.02,129.67 -92.45,330.14 -367.77,359.15 -4.25,0.42 -8.07,-2.37 -6.96,-6.47 l 122.92,-482.62 c 0.34,-1.53 0.07,-3.13 -0.84,-4.45 L 4051.11,4893.82 c -11.61,-16.56 -10.22,-38.82 3.06,-54.05"
               style="fill:url(#linearGradient74);fill-opacity:1;fill-rule:nonzero;stroke:none"
               id="path76"
               sodipodi:nodetypes="cssccccccccccsssccccscccccccccccccc" />
          </g>
        </g>
      </g>
    </g>
  </g>
</svg>
