<?xml version="1.0" encoding="UTF-8" standalone="no"?>
<svg
   class="MuiBox-root css-15p9n5u"
   viewBox="0 0 194.56551 194.56549"
   style="fill:#ffffff"
   data-darkreader-inline-fill=""
   version="1.1"
   id="svg885"
   sodipodi:docname="logo.svg"
   width="194.56551"
   height="194.56551"
   inkscape:version="1.4.2 (ebf0e940d0, 2025-05-08)"
   xmlns:inkscape="http://www.inkscape.org/namespaces/inkscape"
   xmlns:sodipodi="http://sodipodi.sourceforge.net/DTD/sodipodi-0.dtd"
   xmlns="http://www.w3.org/2000/svg"
   xmlns:svg="http://www.w3.org/2000/svg"
   xmlns:rdf="http://www.w3.org/1999/02/22-rdf-syntax-ns#"
   xmlns:cc="http://creativecommons.org/ns#"
   xmlns:dc="http://purl.org/dc/elements/1.1/">
  <metadata
     id="metadata891">
    <rdf:RDF>
      <cc:Work
         rdf:about="">
        <dc:format>image/svg+xml</dc:format>
        <dc:type
           rdf:resource="http://purl.org/dc/dcmitype/StillImage" />
        <dc:title />
      </cc:Work>
    </rdf:RDF>
  </metadata>
  <defs
     id="defs889" />
  <sodipodi:namedview
     pagecolor="#ffffff"
     bordercolor="#666666"
     borderopacity="1"
     objecttolerance="10"
     gridtolerance="10"
     guidetolerance="10"
     inkscape:pageopacity="0"
     inkscape:pageshadow="2"
     inkscape:window-width="1920"
     inkscape:window-height="1132"
     id="namedview887"
     showgrid="false"
     fit-margin-top="4"
     fit-margin-left="4"
     fit-margin-right="4"
     fit-margin-bottom="4"
     inkscape:zoom="1.4194283"
     inkscape:cx="286.03065"
     inkscape:cy="208.88692"
     inkscape:window-x="0"
     inkscape:window-y="0"
     inkscape:window-maximized="1"
     inkscape:current-layer="g14"
     showguides="true"
     inkscape:guide-bbox="true"
     inkscape:showpageshadow="0"
     inkscape:pagecheckerboard="0"
     inkscape:deskcolor="#505050">
    <inkscape:page
       x="0"
       y="0"
       width="194.56551"
       height="194.56549"
       id="page6"
       margin="0"
       bleed="0" />
    <inkscape:page
       x="419.56335"
       y="195.06548"
       width="0"
       height="0"
       id="page14"
       margin="0"
       bleed="0" />
  </sodipodi:namedview>
  <g
     inkscape:groupmode="layer"
     id="g10"
     inkscape:label="blueprint-dark"
     style="display:inline;fill:#ffffff;fill-opacity:0.446602"
     transform="translate(241.4509,-215.63404)">
    <rect
       style="display:inline;fill:#000000;fill-opacity:1;stroke:none;stroke-linecap:square;stroke-miterlimit:2.3;paint-order:markers stroke fill"
       id="rect6"
       width="194.56551"
       height="194.56551"
       x="-16.953066"
       y="-5.6112638"
       transform="translate(0.5,221.7453)"
       inkscape:label="background" />
    <g
       style="display:inline;fill:#0062f8;fill-opacity:0.446602;stroke:none"
       transform="matrix(5.8876865,0,0,5.8876865,-343.71499,286.49531)"
       id="g8"
       inkscape:label="circles">
      <circle
         style="display:inline;fill:#0062f8;fill-opacity:0.446602;stroke:none;stroke-width:302.362;stroke-miterlimit:4;stroke-dasharray:none;stroke-dashoffset:161.197;stroke-opacity:1"
         id="circle6"
         cx="72.107216"
         cy="4.5725055"
         r="9.6730785"
         inkscape:label="small" />
      <circle
         style="display:inline;fill:#0062f8;fill-opacity:0.446602;stroke:none;stroke-width:428.643;stroke-miterlimit:4;stroke-dasharray:none;stroke-dashoffset:161.197;stroke-opacity:1"
         id="circle7"
         cx="72.107216"
         cy="4.5725055"
         r="13.713011"
         inkscape:label="medium" />
      <circle
         style="display:inline;fill:#0062f8;fill-opacity:0.446602;stroke:none;stroke-width:516.481;stroke-miterlimit:4;stroke-dasharray:none;stroke-dashoffset:161.197;stroke-opacity:1"
         id="circle8"
         cx="72.107216"
         cy="4.5725055"
         r="16.523087"
         inkscape:label="big" />
    </g>
    <g
       id="g19"
       inkscape:label="ruller"
       style="display:inline;fill:#ffffff;fill-opacity:0.446602">
      <rect
         style="display:inline;fill:#ffffff;fill-opacity:0.405413;stroke:none;stroke-width:4.4147;stroke-linecap:square;stroke-miterlimit:2.3;stroke-dasharray:none;stroke-opacity:1;paint-order:markers stroke fill"
         id="rect15"
         width="194.56551"
         height="1"
         x="-16.453066"
         y="278.62967"
         inkscape:label="ruller" />
      <rect
         style="display:inline;fill:#ffffff;fill-opacity:0.405413;stroke:none;stroke-width:4.4147;stroke-linecap:square;stroke-miterlimit:2.3;stroke-dasharray:none;stroke-opacity:1;paint-order:markers stroke fill"
         id="rect15-0"
         width="194.56551"
         height="1"
         x="-16.453062"
         y="347.29251"
         inkscape:label="ruller" />
      <rect
         style="display:inline;fill:#ffffff;fill-opacity:0.405413;stroke:none;stroke-width:4.4147;stroke-linecap:square;stroke-miterlimit:2.3;stroke-dasharray:none;stroke-opacity:1;paint-order:markers stroke fill"
         id="rect15-3"
         width="194.56551"
         height="1"
         x="-16.456699"
         y="310.70602"
         inkscape:label="ruller" />
      <rect
         style="display:inline;fill:#ffffff;fill-opacity:0.405413;stroke:none;stroke-width:4.4147;stroke-linecap:square;stroke-miterlimit:2.3;stroke-dasharray:none;stroke-opacity:1;paint-order:markers stroke fill"
         id="rect15-06"
         width="194.56552"
         height="1"
         x="216.13403"
         y="-143.71487"
         inkscape:label="ruller"
         transform="rotate(90)" />
      <rect
         style="display:inline;fill:#ffffff;fill-opacity:0.405413;stroke:none;stroke-width:4.4147;stroke-linecap:square;stroke-miterlimit:2.3;stroke-dasharray:none;stroke-opacity:1;paint-order:markers stroke fill"
         id="rect15-06-8"
         width="194.56551"
         height="1"
         x="216.13403"
         y="-44.487152"
         inkscape:label="ruller"
         transform="rotate(90)" />
    </g>
    <g
       id="g9"
       style="display:inline;fill:#e6e6e6;fill-opacity:1;stroke:none;stroke-opacity:1"
       inkscape:label="logo"
       transform="translate(0.49999954,221.7453)">
      <path
         id="path8"
         style="fill:#e6e6e6;fill-opacity:1;stroke:none;stroke-width:355.553;stroke-linecap:round;stroke-linejoin:round;stroke-miterlimit:2.3;stroke-opacity:1;paint-order:fill markers stroke"
         d="m 80.326047,57.877579 a 26.752747,26.752747 0 0 0 -26.757729,26.75772 26.752747,26.752747 0 0 0 0.355777,4.325427 h 52.803915 a 26.752747,26.752747 0 0 0 0.35578,-4.325427 26.752747,26.752747 0 0 0 -26.757743,-26.75772 z"
         inkscape:label="app" />
      <path
         inkscape:connector-curvature="0"
         style="display:inline;fill:#e6e6e6;fill-opacity:1;stroke:none;stroke-width:4.15564;stroke-opacity:1"
         id="path9"
         d="m 141.72941,87.511292 c -0.27036,-0.220024 -2.79675,-2.127682 -8.12017,-2.127682 -1.32983,0 -2.73855,0.124632 -4.19723,0.361433 -1.03052,-7.077067 -6.86091,-10.526234 -7.13107,-10.679982 l -1.43366,-0.831105 -0.94337,1.363054 c -1.17902,1.826063 -2.03773,3.839986 -2.53904,5.955013 -0.95583,4.039291 -0.3739,7.829232 1.67467,11.078959 -2.47673,1.375518 -6.4246,1.737047 -7.24746,1.74534 H 46.103913 c -1.716853,0.0068 -3.107653,1.395727 -3.116761,3.112612 1.179117,5.458916 1.156108,5.301996 3.063553,10.313696 2.264759,5.94255 5.630883,10.31844 10.010938,13.00715 4.907729,3.01284 12.89905,4.73743 21.925106,4.73743 4.222155,0 8.43597,-0.38262 12.175991,-1.10541 5.888584,-1.13446 11.24106,-3.08345 15.89952,-5.78046 4.07145,-2.35991 7.7342,-5.36307 10.84626,-8.89307 5.20282,-5.90104 6.55451,-6.94991 10.42156,-11.718366 0.31158,0.01438 0.61453,0.01917 0.91844,0.01917 5.69742,0 9.20476,-2.285601 11.13713,-4.197162 2.09862,-2.07782 2.8466,-4.147348 2.9256,-4.375894 l 0.40362,-1.196834 z"
         sodipodi:nodetypes="cscccccccccccsccccscccc"
         inkscape:label="wahle" />
    </g>
  </g>
  <g
     inkscape:groupmode="layer"
     id="g14"
     inkscape:label="blueprint-bright"
     style="display:inline;fill:#ffffff;fill-opacity:0.446602"
     transform="translate(241.4509,-215.63404)">
    <g
       style="display:inline;fill:#0062f8;fill-opacity:0.446602;stroke:none"
       transform="matrix(5.8876865,0,0,5.8876865,-568.71282,285.99531)"
       id="g11"
       inkscape:label="circles">
      <circle
         style="display:inline;fill:#0062f8;fill-opacity:0.446602;stroke:none;stroke-width:302.362;stroke-miterlimit:4;stroke-dasharray:none;stroke-dashoffset:161.197;stroke-opacity:1"
         id="circle4"
         cx="72.107216"
         cy="4.5725055"
         r="9.6730785"
         inkscape:label="small" />
      <circle
         style="display:inline;fill:#0062f8;fill-opacity:0.446602;stroke:none;stroke-width:428.643;stroke-miterlimit:4;stroke-dasharray:none;stroke-dashoffset:161.197;stroke-opacity:1"
         id="circle5"
         cx="72.107216"
         cy="4.5725055"
         r="13.713011"
         inkscape:label="medium" />
      <circle
         style="display:inline;fill:#0062f8;fill-opacity:0.446602;stroke:none;stroke-width:516.481;stroke-miterlimit:4;stroke-dasharray:none;stroke-dashoffset:161.197;stroke-opacity:1"
         id="circle9"
         cx="72.107216"
         cy="4.5725055"
         r="16.523087"
         inkscape:label="big" />
    </g>
    <g
       id="g18"
       inkscape:label="ruller"
       style="display:inline;fill:#ffffff;fill-opacity:0.446602;stroke:none;stroke-opacity:1">
      <rect
         style="display:inline;fill:#ffffff;fill-opacity:0.405413;stroke:none;stroke-width:4.4147;stroke-linecap:square;stroke-miterlimit:2.3;stroke-dasharray:none;stroke-opacity:1;paint-order:markers stroke fill"
         id="rect12"
         width="194.56551"
         height="1"
         x="-241.4509"
         y="278.12967"
         inkscape:label="ruller" />
      <rect
         style="display:inline;fill:#ffffff;fill-opacity:0.405413;stroke:none;stroke-width:4.4147;stroke-linecap:square;stroke-miterlimit:2.3;stroke-dasharray:none;stroke-opacity:1;paint-order:markers stroke fill"
         id="rect13"
         width="194.56551"
         height="1"
         x="-241.4509"
         y="346.79251"
         inkscape:label="ruller" />
      <rect
         style="display:inline;fill:#ffffff;fill-opacity:0.405413;stroke:none;stroke-width:4.4147;stroke-linecap:square;stroke-miterlimit:2.3;stroke-dasharray:none;stroke-opacity:1;paint-order:markers stroke fill"
         id="rect14"
         width="194.56551"
         height="1"
         x="-241.45453"
         y="310.20602"
         inkscape:label="ruller" />
      <rect
         style="display:inline;fill:#ffffff;fill-opacity:0.405413;stroke:none;stroke-width:4.4147;stroke-linecap:square;stroke-miterlimit:2.3;stroke-dasharray:none;stroke-opacity:1;paint-order:markers stroke fill"
         id="rect16"
         width="194.56552"
         height="1"
         x="215.63403"
         y="81.282959"
         inkscape:label="ruller"
         transform="rotate(90)" />
      <rect
         style="display:inline;fill:#ffffff;fill-opacity:0.405413;stroke:none;stroke-width:4.4147;stroke-linecap:square;stroke-miterlimit:2.3;stroke-dasharray:none;stroke-opacity:1;paint-order:markers stroke fill"
         id="rect17"
         width="194.56551"
         height="1"
         x="215.63403"
         y="180.51068"
         inkscape:label="ruller"
         transform="rotate(90)" />
    </g>
    <g
       id="g12"
       style="display:inline;fill:#ffffff;fill-opacity:1;stroke:none;stroke-opacity:1"
       inkscape:label="logo"
       transform="translate(-224.49783,221.2453)">
      <path
         id="path11"
         style="fill:#ffffff;fill-opacity:1;stroke:none;stroke-width:355.553;stroke-linecap:round;stroke-linejoin:round;stroke-miterlimit:2.3;stroke-opacity:1;paint-order:fill markers stroke"
         d="m 80.326047,57.877579 a 26.752747,26.752747 0 0 0 -26.757729,26.75772 26.752747,26.752747 0 0 0 0.355777,4.325427 h 52.803915 a 26.752747,26.752747 0 0 0 0.35578,-4.325427 26.752747,26.752747 0 0 0 -26.757743,-26.75772 z"
         inkscape:label="app" />
      <path
         inkscape:connector-curvature="0"
         style="display:inline;fill:#ffffff;fill-opacity:1;stroke:none;stroke-width:4.15564;stroke-opacity:1"
         id="path12"
         d="m 141.72941,87.511292 c -0.27036,-0.220024 -2.79675,-2.127682 -8.12017,-2.127682 -1.32983,0 -2.73855,0.124632 -4.19723,0.361433 -1.03052,-7.077067 -6.86091,-10.526234 -7.13107,-10.679982 l -1.43366,-0.831105 -0.94337,1.363054 c -1.17902,1.826063 -2.03773,3.839986 -2.53904,5.955013 -0.95583,4.039291 -0.3739,7.829232 1.67467,11.078959 -2.47673,1.375518 -6.4246,1.737047 -7.24746,1.74534 H 46.103913 c -1.716853,0.0068 -3.107653,1.395727 -3.116761,3.112612 1.179117,5.458916 1.156108,5.301996 3.063553,10.313696 2.264759,5.94255 5.630883,10.31844 10.010938,13.00715 4.907729,3.01284 12.89905,4.73743 21.925106,4.73743 4.222155,0 8.43597,-0.38262 12.175991,-1.10541 5.888584,-1.13446 11.24106,-3.08345 15.89952,-5.78046 4.07145,-2.35991 7.7342,-5.36307 10.84626,-8.89307 5.20282,-5.90104 6.55451,-6.94991 10.42156,-11.718366 0.31158,0.01438 0.61453,0.01917 0.91844,0.01917 5.69742,0 9.20476,-2.285601 11.13713,-4.197162 2.09862,-2.07782 2.8466,-4.147348 2.9256,-4.375894 l 0.40362,-1.196834 z"
         sodipodi:nodetypes="cscccccccccccsccccscccc"
         inkscape:label="wahle" />
    </g>
  </g>
  <g
     inkscape:groupmode="layer"
     id="g4"
     inkscape:label="dark"
     style="display:inline"
     transform="translate(241.4509,-215.63404)" />
  <g
     inkscape:groupmode="layer"
     id="layer2"
     inkscape:label="bright"
     style="display:inline;fill:#ffffff"
     transform="translate(16.658678,-212.92328)" />
</svg>
