<?xml version="1.0" encoding="UTF-8" standalone="no"?>
<!-- Created with Inkscape (http://www.inkscape.org/) -->

<svg
   version="1.1"
   id="svg919"
   width="834.39722"
   height="730.48706"
   viewBox="0 0 834.39722 730.48706"
   sodipodi:docname="logo.svg"
   inkscape:version="1.2.2 (b0a8486541, 2022-12-01)"
   xmlns:inkscape="http://www.inkscape.org/namespaces/inkscape"
   xmlns:sodipodi="http://sodipodi.sourceforge.net/DTD/sodipodi-0.dtd"
   xmlns:xlink="http://www.w3.org/1999/xlink"
   xmlns="http://www.w3.org/2000/svg"
   xmlns:svg="http://www.w3.org/2000/svg"
   xmlns:rdf="http://www.w3.org/1999/02/22-rdf-syntax-ns#"
   xmlns:cc="http://creativecommons.org/ns#"
   xmlns:dc="http://purl.org/dc/elements/1.1/">
  <metadata
     id="metadata925">
    <rdf:RDF>
      <cc:Work
         rdf:about="">
        <dc:format>image/svg+xml</dc:format>
        <dc:type
           rdf:resource="http://purl.org/dc/dcmitype/StillImage" />
        <dc:title />
      </cc:Work>
    </rdf:RDF>
  </metadata>
  <defs
     id="defs923">
    <linearGradient
       inkscape:collect="always"
       id="linearGradient1563">
      <stop
         style="stop-color:#d50500;stop-opacity:1"
         offset="0"
         id="stop1559" />
      <stop
         style="stop-color:#e1b900;stop-opacity:1;"
         offset="1"
         id="stop1561" />
    </linearGradient>
    <linearGradient
       inkscape:collect="always"
       xlink:href="#linearGradient1563"
       id="linearGradient1565"
       x1="90.683296"
       y1="690.62628"
       x2="767.32019"
       y2="225.25154"
       gradientUnits="userSpaceOnUse" />
  </defs>
  <sodipodi:namedview
     pagecolor="#ffffff"
     bordercolor="#666666"
     borderopacity="1"
     objecttolerance="10"
     gridtolerance="10"
     guidetolerance="10"
     inkscape:pageopacity="0"
     inkscape:pageshadow="2"
     inkscape:window-width="1920"
     inkscape:window-height="1048"
     id="namedview921"
     showgrid="false"
     fit-margin-top="0"
     fit-margin-left="0"
     fit-margin-right="0"
     fit-margin-bottom="0"
     inkscape:zoom="1.0034924"
     inkscape:cx="430.49653"
     inkscape:cy="429.99827"
     inkscape:window-x="1920"
     inkscape:window-y="-4"
     inkscape:window-maximized="1"
     inkscape:current-layer="svg919"
     inkscape:showpageshadow="2"
     inkscape:pagecheckerboard="0"
     inkscape:deskcolor="#d1d1d1" />
  <rect
     style="fill:#000000"
     id="rect1850"
     width="768.60284"
     height="424.87518"
     x="28.16847"
     y="215.32649" />
  <path
     style="fill:url(#linearGradient1565);fill-opacity:1"
     d="M 94.50247,730.25079 C 77.117356,727.71405 65.427746,724.2075 54.618466,718.28673 28.893936,704.19615 10.662156,680.93363 2.6616063,651.99329 l -2.65913978,-9.61888 v -197 c 0,-214.09526 -0.29603,-202.52243 5.59812978,-218.84753 5.9199797,-16.39658 14.1859497,-28.9754 27.0974097,-41.23574 11.62637,-11.04006 22.82393,-17.81421 38.00471,-22.99161 16.7009,-5.69583 3.53919,-5.42367 263.180744,-5.44197 232.58777,-0.0164 239.03707,-0.0671 236.11901,-1.85632 -1.65,-1.01171 -26.85,-15.02377 -56,-31.1379 C 353.66179,35.226934 368.85438,44.037404 364.99429,37.450664 356.9973,23.804834 364.1962,6.0125243 379.56052,1.4498143 c 10.34373,-3.07175 13.77778,-2.05749005 36.94195,10.9109797 19.01034,10.64295 97.1136,54.21233 138,76.98237 14.025,7.81066 47.00125,26.200456 73.28056,40.866226 l 47.78056,26.66502 h 30.89708 c 16.99339,0 34.39858,0.48701 38.6782,1.08225 14.20305,1.97547 32.37619,9.03994 44.28611,17.21541 6.21634,4.26716 18.53026,16.14867 23.71094,22.87832 8.16272,10.60329 15.46557,26.16114 19.11287,40.71774 1.5055,6.0088 1.6867,24.06134 2.0033,199.60628 0.3618,200.57325 0.3582,200.77432 -3.837,216.39503 -8.34326,31.06582 -34.33414,58.98896 -64.82161,69.64064 -18.31727,6.39967 12.31571,5.86253 -344.59101,6.0423 -178.2,0.0898 -325.125,-9.6e-4 -326.5,-0.20159 z m 463.5,-130.36273 c 22.57197,-1.76998 39.46342,-6.37844 59,-16.09687 15.81513,-7.8672 28.75425,-17.16261 41,-29.45425 21.41719,-21.49743 36.53683,-49.15408 42.50461,-77.74886 10.24379,-49.08335 -2.70354,-98.53261 -35.67275,-136.24359 -19.93605,-22.80332 -48.49533,-40.49778 -77.49171,-48.0115 -37.24965,-9.65236 -77.34154,-5.22028 -111.58857,12.33589 -20.88648,10.70711 -43.3649,30.29648 -56.46236,49.20553 -42.43451,61.26347 -36.68664,142.39143 13.96448,197.10068 25.35051,27.38158 63.83544,45.85088 101.7463,48.82906 5.5,0.43206 10.225,0.83942 10.5,0.90523 0.275,0.0658 5.9,-0.30379 12.5,-0.82132 z M 531.42186,546.9284 c -29.24511,-5.36131 -54.27731,-21.21641 -70.14873,-44.43138 -5.93182,-8.67642 -12.41142,-23.03069 -14.97884,-33.18267 -3.07438,-12.15653 -3.28412,-38.00354 -0.40119,-49.43994 10.22955,-40.58004 40.67752,-69.95214 81.05008,-78.1862 13.00955,-2.65332 34.81951,-2.1438 46.68477,1.09065 36.91805,10.06379 65.4177,38.78128 75.0221,75.59555 3.09496,11.86318 3.38066,36.76342 0.55537,48.40426 -9.34166,38.48986 -37.01321,67.19032 -74.89653,77.68141 -7.52303,2.08336 -12.08506,2.64726 -23.80642,2.94265 -7.975,0.20097 -16.56127,-0.0125 -19.08061,-0.47433 z m -234.25133,25.00962 c 17.1098,-7.76851 20.54111,-31.16909 6.35142,-43.31494 -8.21303,-7.03005 -4.25978,-6.74929 -94.94762,-6.74309 -52.43388,0.004 -82.88542,0.37041 -85.24917,1.02693 -15.36872,4.26859 -23.73524,22.18807 -16.92644,36.25318 2.62173,5.41577 9.5535,11.93059 14.31881,13.45754 2.18411,0.69986 31.60206,1.07945 87.78494,1.13272 80.85911,0.0767 84.67959,-10e-4 88.66806,-1.81234 z m 0.90015,-104.74119 c 19.10488,-10.22623 19.00946,-37.37206 -0.16481,-46.88568 -3.75492,-1.86307 -7.12808,-1.94688 -88.67948,-2.20332 -84.65121,-0.26619 -84.78339,-0.26343 -89.74164,1.86955 -13.55452,5.831 -19.26922,21.67758 -12.66759,35.12662 1.54684,3.15128 4.47133,7.10366 6.49887,8.78307 7.29246,6.04035 4.71464,5.88894 96.68644,5.67904 l 84,-0.1917 z m 0.0515,-104.52326 c 11.55775,-6.09711 16.84264,-18.39274 13.33465,-31.0239 -1.54521,-5.56396 -6.77189,-11.68576 -12.95436,-15.17298 l -5.5,-3.10228 h -84 c -69.20471,0 -84.69473,0.24512 -87.94431,1.39168 -5.56198,1.96245 -13.09728,9.34113 -15.22261,14.90621 -3.61657,9.46987 -1.72895,19.64759 4.99734,26.94475 4.47853,4.85863 7.67996,6.81477 13.38708,8.17981 2.1274,0.50884 39.88196,0.83313 86.2825,0.74113 l 82.5,-0.16358 5.11974,-2.70084 z"
     id="path1028"
     inkscape:connector-curvature="0" />
</svg>
