<?xml version="1.0" encoding="UTF-8" standalone="no"?>
<!-- Generator: Adobe Illustrator 19.0.0, SVG Export Plug-In . SVG Version: 6.00 Build 0)  -->

<svg
   version="1.1"
   id="Layer_1"
   x="0px"
   y="0px"
   viewBox="0 0 150.00002 68.287012"
   enable-background="new 0 0 196.6 72"
   xml:space="preserve"
   inkscape:version="1.2.1 (9c6d41e410, 2022-07-14)"
   sodipodi:docname="logo.svg"
   width="160"
   height="72.839485"
   inkscape:export-filename="nextcloud-logo-inverted.png"
   inkscape:export-xdpi="299.75104"
   inkscape:export-ydpi="299.75104"
   xmlns:inkscape="http://www.inkscape.org/namespaces/inkscape"
   xmlns:sodipodi="http://sodipodi.sourceforge.net/DTD/sodipodi-0.dtd"
   xmlns="http://www.w3.org/2000/svg"
   xmlns:svg="http://www.w3.org/2000/svg"
   xmlns:rdf="http://www.w3.org/1999/02/22-rdf-syntax-ns#"
   xmlns:cc="http://creativecommons.org/ns#"
   xmlns:dc="http://purl.org/dc/elements/1.1/"><metadata
     id="metadata20"><rdf:RDF><cc:Work
         rdf:about=""><dc:format>image/svg+xml</dc:format><dc:type
           rdf:resource="http://purl.org/dc/dcmitype/StillImage" /></cc:Work></rdf:RDF></metadata><defs
     id="defs18"><clipPath
       clipPathUnits="userSpaceOnUse"
       id="clipPath8812"><circle
         id="circle8814"
         cx="95.669289"
         cy="95.669296"
         r="79.724197"
         style="fill:#00080d;fill-opacity:1;stroke-width:1" /></clipPath></defs><sodipodi:namedview
     pagecolor="#ffffff"
     bordercolor="#666666"
     borderopacity="1"
     objecttolerance="10"
     gridtolerance="10"
     guidetolerance="10"
     inkscape:pageopacity="0"
     inkscape:pageshadow="2"
     inkscape:window-width="1680"
     inkscape:window-height="1018"
     id="namedview16"
     showgrid="false"
     inkscape:zoom="2.8284271"
     inkscape:cx="7.2478446"
     inkscape:cy="-0.1767767"
     inkscape:current-layer="Layer_1"
     fit-margin-top="0"
     fit-margin-left="0"
     fit-margin-right="0"
     fit-margin-bottom="0"
     inkscape:window-x="1920"
     inkscape:window-y="-4"
     inkscape:window-maximized="1"
     units="px"
     inkscape:snap-bbox="true"
     inkscape:bbox-paths="true"
     inkscape:bbox-nodes="true"
     inkscape:snap-bbox-edge-midpoints="true"
     inkscape:snap-bbox-midpoints="true"
     inkscape:snap-page="true"
     inkscape:showpageshadow="2"
     inkscape:pagecheckerboard="0"
     inkscape:deskcolor="#d1d1d1" /><path
     inkscape:connector-curvature="0"
     id="path1052"
     d="M 75.114322,0 C 59.566367,0 46.388185,10.540419 42.303829,24.821495 38.754097,17.246596 31.061705,11.939743 22.201404,11.939743 10.016394,11.939743 0,21.956074 0,34.140997 c 0,12.184907 10.016394,22.20581 22.201404,22.20581 8.860301,0 16.552693,-5.310098 20.102426,-12.886328 4.084356,14.282163 17.262537,24.826085 32.810492,24.826085 15.432969,0 28.543958,-10.384898 32.732778,-24.505971 3.61531,7.404235 11.21249,12.566214 19.94694,12.566214 12.18501,0 22.20596,-10.020903 22.20596,-22.20581 0,-12.184923 -10.02095,-22.201254 -22.20596,-22.201254 -8.73445,0 -16.33163,5.158746 -19.94694,12.561653 C 103.65828,10.381427 90.547291,0 75.114322,0 Z m 0,13.032657 c 11.736953,0 21.113057,9.371502 21.113057,21.10834 0,11.736818 -9.376104,21.112902 -21.113057,21.112902 -11.73688,0 -21.108446,-9.376084 -21.108446,-21.112902 0,-11.736838 9.371565,-21.108337 21.108446,-21.10834 z M 22.201404,24.972401 c 5.142206,0 9.173215,4.026397 9.173215,9.168596 0,5.142179 -4.031009,9.173153 -9.173215,9.173153 -5.142218,0 -9.168684,-4.030974 -9.168684,-9.173153 0,-5.142199 4.026466,-9.168596 9.168684,-9.168596 z m 105.592636,0 c 5.14226,0 9.17323,4.026397 9.17323,9.168596 0,5.142179 -4.031,9.173153 -9.17323,9.173153 -5.14218,0 -9.16864,-4.030974 -9.16864,-9.173153 0,-5.142199 4.02648,-9.168596 9.16864,-9.168596 z"
     style="color:#000000;font-style:normal;font-variant:normal;font-weight:normal;font-stretch:normal;font-size:medium;line-height:normal;font-family:sans-serif;text-indent:0;text-align:start;text-decoration:none;text-decoration-line:none;text-decoration-style:solid;text-decoration-color:#000000;letter-spacing:normal;word-spacing:normal;text-transform:none;writing-mode:lr-tb;direction:ltr;baseline-shift:baseline;text-anchor:start;white-space:normal;clip-rule:nonzero;display:inline;overflow:visible;visibility:visible;opacity:1;isolation:auto;mix-blend-mode:normal;color-interpolation:sRGB;color-interpolation-filters:linearRGB;solid-color:#000000;solid-opacity:1;fill:#0082c9;fill-opacity:1;fill-rule:nonzero;stroke:none;stroke-width:7.33046;stroke-linecap:butt;stroke-linejoin:miter;stroke-miterlimit:10;stroke-dasharray:none;stroke-dashoffset:0;stroke-opacity:1;color-rendering:auto;image-rendering:auto;shape-rendering:auto;text-rendering:auto;enable-background:accumulate"
     inkscape:export-filename="Nextcloud Hub logo variants.png"
     inkscape:export-xdpi="300"
     inkscape:export-ydpi="300" /></svg>
