<?xml version="1.0" encoding="UTF-8" standalone="no"?>
<svg
   width="112"
   height="114.00087"
   version="1.1"
   id="svg2"
   sodipodi:docname="logo.svg"
   inkscape:version="1.3.2 (091e20ef0f, 2023-11-25)"
   xmlns:inkscape="http://www.inkscape.org/namespaces/inkscape"
   xmlns:sodipodi="http://sodipodi.sourceforge.net/DTD/sodipodi-0.dtd"
   xmlns="http://www.w3.org/2000/svg"
   xmlns:svg="http://www.w3.org/2000/svg">
  <defs
     id="defs2" />
  <sodipodi:namedview
     id="namedview2"
     pagecolor="#ffffff"
     bordercolor="#000000"
     borderopacity="0.25"
     inkscape:showpageshadow="2"
     inkscape:pageopacity="0.0"
     inkscape:pagecheckerboard="0"
     inkscape:deskcolor="#d1d1d1"
     inkscape:zoom="1.1630859"
     inkscape:cx="-342.19311"
     inkscape:cy="15.04618"
     inkscape:window-width="3440"
     inkscape:window-height="1371"
     inkscape:window-x="0"
     inkscape:window-y="0"
     inkscape:window-maximized="1"
     inkscape:current-layer="svg2" />
  <path
     d="m 0,14.000867 v 96.000003 c 0,2.20914 1.790861,4 4,4 h 12 c 2.209139,0 4,-1.79086 4,-4 V 34.000867 h 4 c 2.209139,0 5.820113,-0.08124 7.972182,0.39786 4.160438,0.926201 6.703758,3.46952 7.629958,7.629959 C 40.081236,44.180754 40,47.791728 40,50.000867 v 60.000003 c 0,2.20914 1.790861,4 4,4 h 12 c 2.209139,0 4,-1.79086 4,-4 V 98.000867 h 16 v 12.000003 c 0,2.20914 1.790861,4 4,4 h 12 c 2.20914,0 4,-1.79086 4,-4 V 98.000867 h 12 c 2.20914,0 4,-1.79086 4,-4 v -12 l -4,-4 H 96 v -16 l -4,-4 H 80 l -4,4 v 16 H 60 v -28 l -32,-40 H 4 Z"
     fill="#d38c2d"
     id="path1"
     sodipodi:nodetypes="csssscssssssssccsssscssccccccccccccc" />
  <path
     d="m 0,4.000867 v 92 a 4,4 0 0 0 4,4.000003 h 12 a 4,4 0 0 0 4,-4.000003 v -76 h 4 c 2.209139,0 5.820113,-0.08124 7.972182,0.39786 4.160438,0.926201 6.703758,3.46952 7.629958,7.629959 C 40.081236,30.180754 40,33.791728 40,36.000867 v 60 a 4,4 0 0 0 4,4.000003 h 12 a 4,4 0 0 0 4,-4.000003 v -12 h 16 v 12 a 4,4 0 0 0 4,4.000003 h 12 a 4,4 0 0 0 4,-4.000003 v -12 h 12 a 4,4 0 0 0 4,-4 v -8 a 4,4 0 0 0 -4,-4 H 96 v -16 a 4,4 0 0 0 -4,-4 H 80 a 4,4 0 0 0 -4,4 v 16 H 60 v -32 C 60,33.791728 60.02285,30.202301 59.75472,28.010868 58.137545,14.793805 48.678077,2.499182 35.981118,0.336602 33.805928,-0.033882 30.209139,8.6699602e-4 28,8.6699602e-4 H 4 A 4,4 0 0 0 0,4.000867 Z"
     fill="#f9aa40"
     id="path2" />
</svg>
