<?xml version="1.0" encoding="UTF-8" standalone="no"?>
<svg
   class="MuiBox-root css-15p9n5u"
   fill="#ffffff"
   data-darkreader-inline-fill=""
   version="1.1"
   viewBox="0 0 324.58591 324.58593"
   id="svg4"
   sodipodi:docname="logo.svg"
   width="324.58591"
   height="324.58591"
   inkscape:version="1.4.2 (ebf0e940d0, 2025-05-08)"
   xmlns:inkscape="http://www.inkscape.org/namespaces/inkscape"
   xmlns:sodipodi="http://sodipodi.sourceforge.net/DTD/sodipodi-0.dtd"
   xmlns="http://www.w3.org/2000/svg"
   xmlns:svg="http://www.w3.org/2000/svg">
  <defs
     id="defs4" />
  <sodipodi:namedview
     id="namedview4"
     pagecolor="#505050"
     bordercolor="#eeeeee"
     borderopacity="1"
     inkscape:showpageshadow="0"
     inkscape:pageopacity="0"
     inkscape:pagecheckerboard="0"
     inkscape:deskcolor="#505050"
     showgrid="false"
     inkscape:zoom="1.3811869"
     inkscape:cx="65.88536"
     inkscape:cy="230.59876"
     inkscape:window-width="1920"
     inkscape:window-height="1132"
     inkscape:window-x="0"
     inkscape:window-y="0"
     inkscape:window-maximized="1"
     inkscape:current-layer="svg4" />
  <g
     transform="matrix(15.993754,0,0,15.993754,202.02026,95.822752)"
     id="g4">
    <g
       transform="matrix(0.61413,0,0,0.61413,-46.767,1.3479)"
       fill="#0062f8"
       fill-opacity="0.4466"
       id="g3">
      <circle
         cx="72.107002"
         cy="4.5725002"
         r="9.6731005"
         id="circle1" />
      <circle
         cx="72.107002"
         cy="4.5725002"
         r="13.713"
         id="circle2" />
      <circle
         cx="72.107002"
         cy="4.5725002"
         r="16.523001"
         id="circle3" />
    </g>
    <path
       d="M 3.9199,3.7221 C 3.8917,3.69915 3.62818,3.50017 3.07291,3.50017 c -0.13871,0 -0.28565,0.013 -0.4378,0.0377 C 2.52762,2.79968 1.91947,2.43987 1.89129,2.42387 L 1.74175,2.33718 1.64335,2.47936 C 1.52037,2.66983 1.4308,2.8799 1.37851,3.10051 1.27881,3.52184 1.33951,3.91715 1.55319,4.25611 1.29485,4.39959 0.88306,4.4373 0.79723,4.43816 h -6.8517 c -0.17908,7.09e-4 -0.32415,0.14558 -0.3251,0.32467 0.12299,0.5694 0.12059,0.55303 0.31955,1.0758 0.23623,0.61985 0.58734,1.0763 1.0442,1.3567 0.51191,0.31426 1.3455,0.49415 2.2869,0.49415 0.4404,0 0.87993,-0.03991 1.27,-0.1153 0.61422,-0.11833 1.1725,-0.32162 1.6584,-0.60294 0.42468,-0.24615 0.80673,-0.5594 1.1313,-0.92761 0.54269,-0.61552 0.68368,-0.72492 1.087,-1.2223 0.0325,0.0015 0.0641,0.002 0.0958,0.002 0.59428,0 0.96012,-0.2384 1.1617,-0.43779 C 3.89418,4.16881 3.9722,3.95294 3.98044,3.9291 l 0.0421,-0.12484 z"
       fill="#ffffff"
       stroke-width="0.43346"
       id="path3" />
  </g>
  <path
     fill="#00dc82"
     d="m 168.1312,157.41035 h 35.57302 c 1.13014,0 2.23986,-0.29473 3.21848,-0.85454 a 6.4114498,6.4114498 0 0 0 2.35566,-2.33523 6.3348952,6.3348952 0 0 0 0.86123,-3.1901 6.3348952,6.3348952 0 0 0 -0.86411,-3.18914 l -23.88983,-41.01159 a 6.4114498,6.4114498 0 0 0 -2.35533,-2.33492 6.4752453,6.4752453 0 0 0 -3.21785,-0.85453 c -1.12949,0 -2.23922,0.29506 -3.21752,0.85486 a 6.4114498,6.4114498 0 0 0 -2.35533,2.33491 l -6.10842,10.49309 -11.94348,-20.519188 a 6.4114498,6.4114498 0 0 0 -2.35629,-2.33492 6.4752453,6.4752453 0 0 0 -3.21816,-0.85422 c -1.12982,0 -2.23986,0.29473 -3.21849,0.85454 a 6.4114498,6.4114498 0 0 0 -2.35628,2.3346 l -29.72808,51.037048 a 6.3317054,6.3317054 0 0 0 -0.86411,3.18946 c -6.4e-4,1.11993 0.29665,2.22008 0.86124,3.1901 a 6.4114498,6.4114498 0 0 0 2.35565,2.33523 6.4752453,6.4752453 0 0 0 3.21848,0.85454 h 22.32972 c 8.84748,0 15.37216,-3.85165 19.86145,-11.36613 l 10.89978,-18.70867 5.83825,-10.01239 17.52144,30.0748 h -23.35969 z m -25.28376,-10.0226 -15.58333,-0.003 23.35937,-40.0974 11.65575,20.0487 -7.8041,13.40025 c -2.98148,4.87557 -6.36838,6.65196 -11.62769,6.65196"
     data-v-7503c9ae=""
     id="path1"
     style="stroke-width:0.318978" />
</svg>
