<?xml version="1.0" encoding="UTF-8" standalone="no"?>
<!-- Generator: Adobe Illustrator 19.0.0, SVG Export Plug-In . SVG Version: 6.00 Build 0)  -->

<svg
   xmlns:dc="http://purl.org/dc/elements/1.1/"
   xmlns:cc="http://creativecommons.org/ns#"
   xmlns:rdf="http://www.w3.org/1999/02/22-rdf-syntax-ns#"
   xmlns:svg="http://www.w3.org/2000/svg"
   xmlns="http://www.w3.org/2000/svg"
   xmlns:sodipodi="http://sodipodi.sourceforge.net/DTD/sodipodi-0.dtd"
   xmlns:inkscape="http://www.inkscape.org/namespaces/inkscape"
   version="1.1"
   id="Layer_1"
   x="0px"
   y="0px"
   viewBox="0 0 113.8922 51.849049"
   enable-background="new 0 0 196.6 72"
   xml:space="preserve"
   inkscape:version="0.92.5 (2060ec1f9f, 2020-04-08)"
   sodipodi:docname="logo.svg"
   width="121.485"
   height="55.305656"
   inkscape:export-filename="nextcloud-logo-inverted.png"
   inkscape:export-xdpi="299.75104"
   inkscape:export-ydpi="299.75104"><metadata
     id="metadata20"><rdf:RDF><cc:Work
         rdf:about=""><dc:format>image/svg+xml</dc:format><dc:type
           rdf:resource="http://purl.org/dc/dcmitype/StillImage" /><dc:title></dc:title></cc:Work></rdf:RDF></metadata><defs
     id="defs18"><clipPath
       clipPathUnits="userSpaceOnUse"
       id="clipPath8812"><circle
         id="circle8814"
         cx="95.669289"
         cy="95.669296"
         r="79.724197"
         style="fill:#00080d;fill-opacity:1;stroke-width:1" /></clipPath></defs><sodipodi:namedview
     pagecolor="#ffffff"
     bordercolor="#666666"
     borderopacity="1"
     objecttolerance="10"
     gridtolerance="10"
     guidetolerance="10"
     inkscape:pageopacity="0"
     inkscape:pageshadow="2"
     inkscape:window-width="1920"
     inkscape:window-height="1048"
     id="namedview16"
     showgrid="false"
     inkscape:zoom="2.8284271"
     inkscape:cx="31.308994"
     inkscape:cy="-0.37679728"
     inkscape:current-layer="Layer_1"
     fit-margin-top="0"
     fit-margin-left="0"
     fit-margin-right="0"
     fit-margin-bottom="0"
     inkscape:window-x="0"
     inkscape:window-y="-4"
     inkscape:window-maximized="1"
     units="px"
     inkscape:snap-bbox="true"
     inkscape:bbox-paths="true"
     inkscape:bbox-nodes="true"
     inkscape:snap-bbox-edge-midpoints="true"
     inkscape:snap-bbox-midpoints="true"
     inkscape:snap-page="true" /><path
     inkscape:connector-curvature="0"
     id="path1052"
     d="M 57.032896,0 C 45.227625,0 35.221679,8.0031959 32.120504,18.846621 29.425259,13.095104 23.58457,9.0656829 16.85711,9.0656829 7.6052599,9.0656829 0,16.670946 0,25.922791 c 0,9.251833 7.6052599,16.860567 16.85711,16.860567 6.72746,0 12.568149,-4.031885 15.263395,-9.784412 3.101175,10.84425 13.10712,18.850106 24.912391,18.850106 11.717964,0 21.67289,-7.885111 24.853382,-18.607048 2.745036,5.621934 8.513436,9.541354 15.145342,9.541354 9.25185,0 16.86057,-7.608734 16.86057,-16.860567 0,-9.251845 -7.60872,-16.8571081 -16.86057,-16.8571081 -6.631906,0 -12.400306,3.9169651 -15.145342,9.5378911 C 78.705786,7.8824749 68.75086,0 57.032896,0 Z m 0,9.8955179 c 8.911648,0 16.030748,7.1156531 16.030748,16.0272731 0,8.911605 -7.1191,16.030737 -16.030748,16.030737 -8.911593,0 -16.027247,-7.119132 -16.027247,-16.030737 0,-8.91162 7.115653,-16.0272711 16.027247,-16.0272731 z M 16.85711,18.961202 c 3.90438,0 6.96505,3.057188 6.96505,6.961589 0,3.904386 -3.06067,6.965049 -6.96505,6.965049 -3.90439,0 -6.9616101,-3.060663 -6.9616101,-6.965049 0,-3.904401 3.0572201,-6.961589 6.9616101,-6.961589 z m 80.17451,0 c 3.90442,0 6.96506,3.057188 6.96506,6.961589 0,3.904386 -3.06066,6.965049 -6.96506,6.965049 -3.90436,0 -6.961576,-3.060663 -6.961576,-6.965049 0,-3.904401 3.057226,-6.961589 6.961576,-6.961589 z"
     style="color:#000000;font-style:normal;font-variant:normal;font-weight:normal;font-stretch:normal;font-size:medium;line-height:normal;font-family:sans-serif;text-indent:0;text-align:start;text-decoration:none;text-decoration-line:none;text-decoration-style:solid;text-decoration-color:#000000;letter-spacing:normal;word-spacing:normal;text-transform:none;writing-mode:lr-tb;direction:ltr;baseline-shift:baseline;text-anchor:start;white-space:normal;clip-rule:nonzero;display:inline;overflow:visible;visibility:visible;opacity:1;isolation:auto;mix-blend-mode:normal;color-interpolation:sRGB;color-interpolation-filters:linearRGB;solid-color:#000000;solid-opacity:1;fill:#0082c9;fill-opacity:1;fill-rule:nonzero;stroke:none;stroke-width:5.56590033;stroke-linecap:butt;stroke-linejoin:miter;stroke-miterlimit:10;stroke-dasharray:none;stroke-dashoffset:0;stroke-opacity:1;color-rendering:auto;image-rendering:auto;shape-rendering:auto;text-rendering:auto;enable-background:accumulate"
     inkscape:export-filename="Nextcloud Hub logo variants.png"
     inkscape:export-xdpi="300"
     inkscape:export-ydpi="300" /></svg>