<?xml version="1.0" encoding="UTF-8" standalone="no"?>
<svg
   width="32"
   height="32"
   viewBox="0 0 16 16"
   version="1.1"
   id="svg174"
   sodipodi:docname="logo.svg"
   inkscape:version="1.2.2 (b0a8486541, 2022-12-01)"
   xmlns:inkscape="http://www.inkscape.org/namespaces/inkscape"
   xmlns:sodipodi="http://sodipodi.sourceforge.net/DTD/sodipodi-0.dtd"
   xmlns="http://www.w3.org/2000/svg"
   xmlns:svg="http://www.w3.org/2000/svg">
  <defs
     id="defs178" />
  <sodipodi:namedview
     id="namedview176"
     pagecolor="#ffffff"
     bordercolor="#000000"
     borderopacity="0.25"
     inkscape:showpageshadow="2"
     inkscape:pageopacity="0.0"
     inkscape:pagecheckerboard="0"
     inkscape:deskcolor="#d1d1d1"
     showgrid="false"
     inkscape:zoom="19.025592"
     inkscape:cx="15.216347"
     inkscape:cy="14.533056"
     inkscape:window-width="1920"
     inkscape:window-height="1048"
     inkscape:window-x="1920"
     inkscape:window-y="-4"
     inkscape:window-maximized="1"
     inkscape:current-layer="svg174" />
  <circle
     style="fill:#ffd42a;stroke-width:0.028104;stop-color:#000000"
     id="path469"
     cx="7.9642467"
     cy="8.0036144"
     r="7.4262042" />
  <path
     style="fill:#c83737;stroke:none;stroke-width:0.0436133;stroke-dasharray:none;stroke-opacity:1"
     d="M 10.423467,12.35712 C 9.264616,12.224164 9.420953,12.2777 9.010057,11.873087 8.8736367,11.738753 8.6949887,11.537914 8.6130607,11.42678 l -0.148961,-0.202064 -0.256126,-3.15e-4 c -0.205691,-2.69e-4 -0.309083,-0.01527 -0.525059,-0.07625 -0.147913,-0.04176 -0.276731,-0.07627 -0.286263,-0.07668 -0.0095,-4.04e-4 -0.05477,0.06553 -0.100528,0.14653 -0.04576,0.081 -0.166698,0.230147 -0.268751,0.331439 -0.182617,0.181253 -0.190143,0.185595 -0.475756,0.274472 -0.567036,0.176449 -0.681956,0.195869 -1.301903,0.219999 -0.316956,0.01234 -0.662727,0.03952 -0.768379,0.06039 -0.320053,0.06325 -0.422012,0.07097 -0.55317,0.04189 -0.263249,-0.05837 -0.403593,-0.214548 -0.404804,-0.450483 -8.55e-4,-0.166864 0.05649,-0.255733 0.208403,-0.322929 0.231154,-0.102251 0.465546,-0.01064 0.638241,0.24946 0.05779,0.08703 0.116643,0.145746 0.153712,0.153336 0.03304,0.0068 0.08676,0.01775 0.119375,0.02441 0.03262,0.0067 0.211168,0.02367 0.396775,0.03779 0.544753,0.04146 1.06331,-0.03282 1.528102,-0.218893 0.19279,-0.07718 0.499161,-0.342984 0.597405,-0.518304 l 0.05874,-0.10483 -0.158242,-0.07988 -0.158243,-0.07988 -0.224534,0.104323 c -0.221631,0.102974 -0.658114,0.224284 -1.026522,0.285297 -0.172694,0.0286 -0.222365,0.02549 -0.570754,-0.03571 -0.20988,-0.03687 -0.385784,-0.07122 -0.390898,-0.07634 -0.0051,-0.0051 0.143554,-0.01621 0.330373,-0.02465 0.627844,-0.02838 1.148054,-0.12922 1.504671,-0.291666 l 0.191718,-0.08733 -0.184959,-0.115965 -0.184959,-0.115965 -0.762332,-0.0069 c -0.667832,-0.0061 -0.789431,-0.01349 -0.980942,-0.05989 -0.120236,-0.02913 -0.258544,-0.06947 -0.307352,-0.08964 l -0.08874,-0.03668 0.128063,-0.08228 c 0.07353,-0.04724 0.149878,-0.07757 0.179289,-0.0712 0.614614,0.132939 0.737516,0.1515 1.024505,0.154725 0.169044,0.0019 0.386143,-0.0062 0.482443,-0.01803 0.202669,-0.02487 0.198148,-0.0016 0.06707,-0.344883 L 6.0154087,9.718006 5.8566707,9.701426 C 5.3624147,9.649806 4.9821507,9.517109 4.6350087,9.275108 4.4033877,9.11364 4.3768437,9.081928 4.3106587,8.8876056 c -0.221574,-0.650553 -0.237901,-1.369873 -0.04771,-2.101888 0.07335,-0.282309 0.29688,-0.889502 0.430886,-1.170454 0.214121,-0.448913 0.556931,-0.9358 0.949805,-1.348989 0.291737,-0.306822 0.437352,-0.395067 0.679251,-0.41164 l 0.169032,-0.01158 0.162453,0.182595 0.162453,0.182596 -0.0092,0.248886 c -0.01022,0.276471 -0.05165,0.393396 -0.187231,0.528355 l -0.07947,0.07911 -0.447112,-0.0087 -0.447112,-0.0087 -0.165644,-0.08735 c -0.0911,-0.04804 -0.177727,-0.08735 -0.192494,-0.08735 -0.01477,0 -0.07834,0.0778 -0.141265,0.172885 -0.361368,0.546047 -0.781817,1.644486 -0.868779,2.26972 -0.04047,0.290942 -0.03425,0.817661 0.01197,1.013746 0.157014,0.666156 0.760041,1.1560164 1.458661,1.1849244 l 0.179289,0.0074 0.01484,-0.153676 c 0.02772,-0.287144 0.178187,-0.4873794 0.471398,-0.6273164 0.474207,-0.226317 1.200426,-0.250781 2.241512,-0.0755 0.6328223,0.106541 0.9081853,0.208557 1.0746333,0.3981314 0.08169,0.09304 0.08362,0.100516 0.06726,0.260249 l -0.01685,0.164456 0.225068,-0.01749 c 0.836205,-0.06497 1.238441,-0.365868 1.355015,-1.0136484 0.04746,-0.263707 0.05419,-0.896077 0.01199,-1.125085 -0.04598,-0.24946 -0.223267,-0.871388 -0.31236,-1.095742 -0.115651,-0.291233 -0.333106,-0.705256 -0.56418,-1.074174 -0.112193,-0.17912 -0.20722,-0.328904 -0.211171,-0.332855 -0.004,-0.004 -0.08116,0.02307 -0.171573,0.06005 -0.516289,0.21114 -0.944671,0.238034 -1.3080353,0.08212 -0.195891,-0.08405 -0.234659,-0.142684 -0.222334,-0.336246 0.01459,-0.229078 0.116667,-0.389089 0.5004743,-0.784497 l 0.312676,-0.322126 0.109933,0.126281 c 1.051091,1.207408 1.755132,2.457014 1.964423,3.486663 0.109647,0.539433 0.127085,1.195615 0.04012,1.509583 -0.09036,0.326225 -0.354232,0.6090034 -0.740298,0.7933474 -0.249419,0.119098 -0.442101,0.165896 -0.758467,0.184218 L 9.74243,9.643555 9.625147,9.966556 c -0.09898,0.272601 -0.111376,0.32643 -0.07942,0.344977 0.02083,0.01209 0.203225,0.02817 0.405331,0.03573 0.564206,0.02112 0.892842,-0.04672 1.350398,-0.27876 0.236383,-0.119876 0.260163,-0.126599 0.422608,-0.119468 l 0.172132,0.0076 -0.371383,0.208582 c -0.561936,0.315602 -0.794204,0.371065 -1.597974,0.381576 l -0.509439,0.0067 -0.150087,0.132112 c -0.08255,0.07266 -0.150087,0.146287 -0.150087,0.16361 0,0.07164 0.433784,0.287287 0.72996,0.362895 0.202374,0.05166 0.670725,0.06429 1.114149,0.03003 0.148753,-0.01149 0.302782,-0.0108 0.344678,0.0015 0.06908,0.02036 0.05781,0.02618 -0.128063,0.06617 -0.494738,0.106434 -1.004578,0.122339 -1.34357,0.04191 C 9.39883,11.248385 9.135833,11.144192 9.007905,11.02429 l -0.0709,-0.06645 -0.15545,0.07658 -0.155451,0.07658 0.1359,0.203996 c 0.155873,0.233979 0.58086,0.685297 0.683213,0.725546 0.233228,0.09171 1.637081,0.188071 2.039518,0.139988 l 0.177627,-0.02122 0.07548,-0.18669 c 0.100431,-0.248387 0.257696,-0.424282 0.41469,-0.463814 0.19724,-0.04966 0.258253,0.02247 0.252212,0.298179 -0.0042,0.190075 -0.105916,0.384406 -0.284711,0.543764 l -0.144419,0.12872 -0.270223,-0.0031 c -0.148623,-0.0017 -0.725488,-0.05535 -1.281922,-0.119188 z M 7.2987247,9.653195 c 0.147913,-0.034 0.332325,-0.08705 0.409803,-0.117889 0.217387,-0.08652 0.691541,-0.314767 0.691541,-0.332898 0,-0.02358 -0.315141,0.01208 -0.537398,0.06082 -0.328651,0.07206 -1.127424,0.404231 -1.127424,0.468834 0,0.0249 0.286575,-0.01521 0.563478,-0.07887 z m -0.994687,-4.6943604 0.09385,-0.01552 -0.04893,-0.08025 c -0.06066,-0.09948 -0.06708,-0.368222 -0.01138,-0.475943 0.02076,-0.04015 0.08529,-0.113693 0.143405,-0.163434 l 0.105657,-0.09044 -0.04736,-0.06577 c -0.02605,-0.03618 -0.07452,-0.07311 -0.107723,-0.08208 -0.09312,-0.02515 -0.321826,0.03669 -0.432689,0.117001 -0.108428,0.07855 -0.56987,0.595658 -0.56987,0.638623 0,0.03615 0.308386,0.180485 0.441907,0.206824 0.135876,0.0268 0.310659,0.03124 0.433128,0.01099 z M 9.815167,4.7709566 c 0.193695,-0.04877 0.352174,-0.09681 0.352174,-0.106762 0,-0.02181 -0.739358,-0.928641 -0.7649,-0.938162 -0.0098,-0.0037 -0.06706,0.04342 -0.127154,0.10465 l -0.109255,0.111323 0.100511,0.06651 c 0.134234,0.08883 0.235269,0.290074 0.233745,0.465576 -9.98e-4,0.115093 -0.02107,0.195577 -0.0888,0.356146 -0.01446,0.03429 -0.0101,0.04492 0.01575,0.0384 0.01966,-0.005 0.194231,-0.04892 0.387927,-0.09768 z M 9.048999,4.6016326 c 0.03349,-0.14682 0.03371,-0.17962 0.0017,-0.256126 -0.02016,-0.04826 -0.04113,-0.08774 -0.04659,-0.08774 -0.0055,0 -0.03412,0.041 -0.06369,0.09111 -0.06215,0.105333 -0.07702,0.381874 -0.02174,0.404181 0.07492,0.03023 0.09386,0.0082 0.130274,-0.15142 z m -2.4534263,0.06362 c 0.04991,-0.09652 0.03114,-0.181869 -0.02718,-0.123552 -0.04806,0.04806 -0.08004,0.202702 -0.04191,0.202702 0.01549,0 0.04658,-0.03562 0.06909,-0.07915 z"
     id="path342" />
</svg>
