<?xml version="1.0" encoding="UTF-8" standalone="no"?>
<svg
   width="32"
   height="32"
   viewBox="0 0 16 16"
   version="1.1"
   id="svg174"
   sodipodi:docname="logo.svg"
   inkscape:version="1.2.1 (9c6d41e410, 2022-07-14)"
   xmlns:inkscape="http://www.inkscape.org/namespaces/inkscape"
   xmlns:sodipodi="http://sodipodi.sourceforge.net/DTD/sodipodi-0.dtd"
   xmlns="http://www.w3.org/2000/svg"
   xmlns:svg="http://www.w3.org/2000/svg">
  <defs
     id="defs178" />
  <sodipodi:namedview
     id="namedview176"
     pagecolor="#ffffff"
     bordercolor="#000000"
     borderopacity="0.25"
     inkscape:showpageshadow="2"
     inkscape:pageopacity="0.0"
     inkscape:pagecheckerboard="0"
     inkscape:deskcolor="#d1d1d1"
     showgrid="false"
     inkscape:zoom="26.90625"
     inkscape:cx="15.739837"
     inkscape:cy="16"
     inkscape:window-width="1920"
     inkscape:window-height="1080"
     inkscape:window-x="0"
     inkscape:window-y="-36"
     inkscape:window-maximized="1"
     inkscape:current-layer="svg174" />
  <path
     fill="currentColor"
     d="M2 0a2 2 0 0 0-2 2v12a2 2 0 0 0 2 2h12a2 2 0 0 0 2-2V2a2 2 0 0 0-2-2H2zm1.5 2.5c5.523 0 10 4.477 10 10a1 1 0 1 1-2 0a8 8 0 0 0-8-8a1 1 0 0 1 0-2zm0 4a6 6 0 0 1 6 6a1 1 0 1 1-2 0a4 4 0 0 0-4-4a1 1 0 0 1 0-2zm.5 7a1.5 1.5 0 1 1 0-3a1.5 1.5 0 0 1 0 3z"
     id="path172"
     style="fill:#ffa500;fill-opacity:1" />
</svg>
