<?xml version="1.0" encoding="UTF-8" standalone="no"?>
<svg
   width="212"
   height="212"
   viewBox="0 0 212 212"
   fill="none"
   version="1.1"
   id="svg12"
   sodipodi:docname="logo.svg"
   inkscape:version="1.4 (e7c3feb100, 2024-10-09)"
   xmlns:inkscape="http://www.inkscape.org/namespaces/inkscape"
   xmlns:sodipodi="http://sodipodi.sourceforge.net/DTD/sodipodi-0.dtd"
   xmlns="http://www.w3.org/2000/svg"
   xmlns:svg="http://www.w3.org/2000/svg">
  <defs
     id="defs12" />
  <sodipodi:namedview
     id="namedview12"
     pagecolor="#505050"
     bordercolor="#eeeeee"
     borderopacity="1"
     inkscape:showpageshadow="0"
     inkscape:pageopacity="0"
     inkscape:pagecheckerboard="0"
     inkscape:deskcolor="#505050"
     inkscape:zoom="0.67237443"
     inkscape:cx="397.8438"
     inkscape:cy="105.59593"
     inkscape:window-width="1920"
     inkscape:window-height="1011"
     inkscape:window-x="0"
     inkscape:window-y="0"
     inkscape:window-maximized="1"
     inkscape:current-layer="svg12" />
  <path
     d="M 0,73.4933 C 0,38.8482 0,21.5257 10.7628,10.7628 21.5257,0 38.8482,0 73.4933,0 h 65.0137 c 34.645,0 51.967,0 62.73,10.7628 C 212,21.5257 212,38.8482 212,73.4933 v 65.0137 c 0,34.645 0,51.967 -10.763,62.73 C 190.474,212 173.152,212 138.507,212 H 73.4933 C 38.8482,212 21.5257,212 10.7628,201.237 0,190.474 0,173.152 0,138.507 Z"
     fill="#4945ff"
     id="path8" />
  <path
     fill-rule="evenodd"
     clip-rule="evenodd"
     d="M 146.28,64.3066 H 74.9062 V 100.7 H 111.3 v 36.393 h 36.393 V 65.72 c 0,-0.7806 -0.633,-1.4134 -1.413,-1.4134 z"
     fill="#ffffff"
     id="path9" />
  <rect
     x="109.886"
     y="100.7"
     width="1.41333"
     height="1.41333"
     fill="#ffffff"
     id="rect9" />
  <path
     d="m 74.9062,100.7 h 34.9798 c 0.781,0 1.414,0.633 1.414,1.413 v 34.98 H 76.3196 c -0.7806,0 -1.4134,-0.632 -1.4134,-1.413 z"
     fill="#9593ff"
     id="path10" />
  <path
     d="m 111.3,137.093 h 36.393 l -35.187,35.187 c -0.445,0.445 -1.206,0.13 -1.206,-0.499 z"
     fill="#9593ff"
     id="path11" />
  <path
     d="M 74.9061,100.7 H 40.2188 c -0.6295,0 -0.9448,-0.7612 -0.4997,-1.2064 l 35.187,-35.187 z"
     fill="#9593ff"
     id="path12" />
</svg>
