<svg xmlns="http://www.w3.org/2000/svg" xmlns:xlink="http://www.w3.org/1999/xlink" height="800" width="1200" viewBox="-6.659355 -11.5136 57.71441 69.0816"><defs><linearGradient id="j"><stop offset="0"/><stop offset="1" stop-opacity="0"/></linearGradient><linearGradient id="i"><stop offset="0" stop-color="#f9f9f9"/><stop offset="1" stop-color="#eeeeec" stop-opacity=".6204"/></linearGradient><linearGradient id="h"><stop offset="0" stop-color="#787b76"/><stop offset=".8713" stop-color="#babcb9"/><stop offset="1" stop-color="#787b76"/></linearGradient><linearGradient id="f"><stop offset="0" stop-color="#fff"/><stop offset="1" stop-color="#fff" stop-opacity="0"/></linearGradient><linearGradient id="e"><stop offset="0" stop-color="#c00"/><stop offset=".3651" stop-color="#ef0000"/><stop offset="1" stop-color="#a00"/></linearGradient><linearGradient id="g"><stop offset="0" stop-color="#f0f2ef"/><stop offset="1" stop-color="#cdd1c8"/></linearGradient><linearGradient id="d"><stop offset="0" stop-color="#888a85"/><stop offset="1" stop-color="#2e3436"/></linearGradient><linearGradient id="c"><stop offset="0" stop-color="#555753"/><stop offset="1" stop-color="#2e3436"/></linearGradient><linearGradient id="b"><stop offset="0" stop-color="#2e3436"/><stop offset="1" stop-color="#2e3436" stop-opacity="0"/></linearGradient><linearGradient id="a"><stop offset="0" stop-color="#babdb6"/><stop offset=".133" stop-color="#eeeeec"/><stop offset="1" stop-color="#babdb6"/></linearGradient><linearGradient gradientUnits="userSpaceOnUse" y2="19.4657" x2="23.7386" y1="4.1566" x1="23.7386" id="t" xlink:href="#a"/><linearGradient gradientUnits="userSpaceOnUse" y2="22.6325" x2="23.6881" y1="30.0572" x1="23.7323" id="u" xlink:href="#b"/><linearGradient gradientUnits="userSpaceOnUse" y2="36.358" x2="23.9375" y1="30.6169" x1="23.9375" id="n" xlink:href="#c"/><linearGradient gradientUnits="userSpaceOnUse" y2="23.9395" x2="20.5631" y1="32.248" x1="20.7711" id="o" xlink:href="#d"/><linearGradient gradientUnits="userSpaceOnUse" y2="9" x2="14.8125" y1="5.6244" x1="14.8125" id="p" xlink:href="#e"/><linearGradient gradientUnits="userSpaceOnUse" y2="10.0086" x2="24.0405" y1="5.069" x1="24.0405" id="q" xlink:href="#f"/><linearGradient gradientUnits="userSpaceOnUse" y2="24" x2="14.125" y1="33.125" x1="13.625" id="m" xlink:href="#g"/><linearGradient gradientUnits="userSpaceOnUse" y2="42.5" x2="10.1875" y1="20.25" x1="10.1875" id="l" xlink:href="#h"/><linearGradient gradientUnits="userSpaceOnUse" y2="17.0709" x2="23.9367" y1="35.9587" x1="24.7188" id="r" xlink:href="#i"/><linearGradient gradientUnits="userSpaceOnUse" y2="21.8143" x2="18.3125" y1="20.7438" x1="18.3125" id="s" xlink:href="#j"/><filter height="1.2799" y="-.14" width="1.0595" x="-.0298" id="k"><feGaussianBlur stdDeviation=".5197"/></filter></defs><g transform="translate(-1.7528 -3.1044)"><rect ry="2.2981" rx="2.2981" y="39" x="3" height="8.9116" width="41.9013" opacity=".2824" fill="#2e3436" filter="url(#k)"/><path d="M10 16.5938c-1.1804-.045-2.3598.978-2.4688 2.2187-.888 7.2876-2.2042 14.591-2.875 21.875V43.75c.0338 1.5795 1.071 2.642 2.2188 2.8438H41.5c.979-.0246 2.065-.7038 2.0313-2v-3.9376l-3.125-21.2187c-.2539-1.3018-1.3668-2.6848-2.9063-2.8438z" fill="url(#l)" fill-rule="evenodd" stroke="#555753"/><path d="M10.6019 39.6246c-1.1297-.1225-1.9285-.8636-1.9005-2.2236l1.9005-15.9933c.292-1.0683.985-1.9224 2.079-1.9193h21.9246c1.0863-.0326 2.1726.7204 2.457 1.6163l2.416 16.133c.057 1.469-.5475 2.3194-1.5654 2.2859z" fill="url(#m)" fill-rule="evenodd" stroke="#555753"/><path d="M20.4688 20.4375l-2.0626 12.0313h-2.9687l8.0313 5.1562 8.9687-5.1563h-2.9688l-1.875-12.0312z" fill="url(#n)" fill-rule="evenodd" stroke="url(#o)"/><rect ry="1.9855" rx="5.0159" y="4.5135" x="8.4848" height="6.0609" width="31.1132" fill="url(#p)" stroke="#930000" stroke-linecap="round" stroke-linejoin="round"/><rect ry="1.2783" rx="1.8339" y="5.569" x="9.5004" height="3.9396" width="29.0803" opacity=".5833" fill="none" stroke="url(#q)" stroke-linecap="round" stroke-linejoin="round"/><path d="M10.593 17.5722c-1.1188-.042-2.2367.9145-2.34 2.0748L5.4687 39.7228c.011.125.031.2569.0593.3799v2.8638c.032 1.477 1.015 2.4414 2.103 2.63h32.8483c.928-.0229 1.9276-.6288 1.8956-1.841v-3.682c.0073-.0285.0236-.0596.0297-.0877l-.0297-.2046v-.2045h-.0296l-2.9027-19.3745c-.2406-1.2173-1.2954-2.4813-2.7546-2.63z" opacity=".2454" fill="none" stroke="url(#r)"/><path d="M10.2102 29.9558L12.048 22l24.0302.058 1.7797 8.9862-1.1767-9.0746c-.221-1.0017-.7513-1.9696-1.7236-1.9445l-21.9203-.0442c-1.4304-.0442-1.7118.8839-2.0373 1.9887z" opacity=".2083" fill="url(#s)" fill-rule="evenodd"/><rect ry="1.0763" rx="1.0763" y="3.6044" x="20.4837" height="25.9701" width="7.0964" fill="url(#t)" stroke="#888a85" stroke-linecap="round" stroke-linejoin="round"/><rect ry="1.0763" rx="1.0763" y="22.0138" x="19.9758" height="8.0433" width="8.1317" fill="url(#u)"/><path d="M11.4234 41.4863h28.1104" opacity=".4352" fill="none" stroke="#fff" stroke-linecap="round"/><rect ry="1.0763" rx="1.0763" y="4.6321" x="21.4282" height="23.9371" width="5.1519" opacity=".2269" fill="none" stroke="#fff" stroke-linecap="round" stroke-linejoin="round"/><g opacity=".6204" fill="none" stroke-linecap="round"><path d="M20.4375 30.5H27.5" stroke="#888a85"/><path d="M19.961 32.5h8.0155" opacity=".6806" stroke="#888a85"/><path d="M20.2735 31.5h7.453" stroke="#5d5d5c"/><path d="M19.87 33.4887h8.2713" opacity=".6806" stroke="#5d5d5c"/></g><path d="M14.3814 31.5137h3.1378m12.9248-.0625h3.1377" fill="none" stroke="#fff" stroke-linecap="round"/><ellipse ry="1.0828" rx="1.1932" cy="42.1885" cx="9.8553" transform="matrix(.42163 0 0 .4766 5.3635 21.3923)" opacity=".335" fill="#fff"/></g></svg>