<?xml version="1.0" encoding="UTF-8" standalone="no"?>
<svg
   class="MuiBox-root css-15p9n5u"
   viewBox="0 0 797.37024 194.56549"
   style="fill:#ffffff"
   data-darkreader-inline-fill=""
   version="1.1"
   id="svg885"
   sodipodi:docname="docker-web.svg"
   width="797.37024"
   height="194.56551"
   inkscape:version="1.4.2 (ebf0e940d0, 2025-05-08)"
   xmlns:inkscape="http://www.inkscape.org/namespaces/inkscape"
   xmlns:sodipodi="http://sodipodi.sourceforge.net/DTD/sodipodi-0.dtd"
   xmlns="http://www.w3.org/2000/svg"
   xmlns:svg="http://www.w3.org/2000/svg"
   xmlns:rdf="http://www.w3.org/1999/02/22-rdf-syntax-ns#"
   xmlns:cc="http://creativecommons.org/ns#"
   xmlns:dc="http://purl.org/dc/elements/1.1/">
  <metadata
     id="metadata891">
    <rdf:RDF>
      <cc:Work
         rdf:about="">
        <dc:format>image/svg+xml</dc:format>
        <dc:type
           rdf:resource="http://purl.org/dc/dcmitype/StillImage" />
        <dc:title />
      </cc:Work>
    </rdf:RDF>
  </metadata>
  <defs
     id="defs889" />
  <sodipodi:namedview
     pagecolor="#ffffff"
     bordercolor="#666666"
     borderopacity="1"
     objecttolerance="10"
     gridtolerance="10"
     guidetolerance="10"
     inkscape:pageopacity="0"
     inkscape:pageshadow="2"
     inkscape:window-width="1920"
     inkscape:window-height="1132"
     id="namedview887"
     showgrid="false"
     fit-margin-top="4"
     fit-margin-left="4"
     fit-margin-right="4"
     fit-margin-bottom="4"
     inkscape:zoom="0.96338179"
     inkscape:cx="243.93237"
     inkscape:cy="297.38988"
     inkscape:window-x="0"
     inkscape:window-y="0"
     inkscape:window-maximized="1"
     inkscape:current-layer="g4"
     showguides="true"
     inkscape:guide-bbox="true"
     inkscape:showpageshadow="0"
     inkscape:pagecheckerboard="0"
     inkscape:deskcolor="#505050">
    <inkscape:page
       x="0"
       y="0"
       width="797.37024"
       height="194.56549"
       id="page4"
       margin="0 0 0 0.43449217"
       bleed="0"
       inkscape:export-filename="Page 2.png"
       inkscape:export-xdpi="812.74384"
       inkscape:export-ydpi="812.74384" />
    <inkscape:page
       x="-1.877153e-06"
       y="241.8387"
       width="797.37024"
       height="194.56549"
       id="page5"
       margin="0"
       bleed="0" />
    <sodipodi:guide
       position="104.20576,114.53182"
       orientation="0,-1"
       id="guide1"
       inkscape:locked="false" />
    <sodipodi:guide
       position="95.9799,46.869914"
       orientation="0,-1"
       id="guide2"
       inkscape:locked="false" />
    <sodipodi:guide
       position="59.940215,98.175439"
       orientation="1,0"
       id="guide3"
       inkscape:locked="false" />
    <sodipodi:guide
       position="154.23481,87.820828"
       orientation="1,0"
       id="guide4"
       inkscape:locked="false" />
    <sodipodi:guide
       position="40.330701,52.53184"
       orientation="1,0"
       id="guide5"
       inkscape:locked="false" />
    <sodipodi:guide
       position="16.872818,73.467948"
       orientation="1,0"
       id="guide6"
       inkscape:locked="false" />
    <sodipodi:guide
       position="178.02067,61.55154"
       orientation="1,0"
       id="guide7"
       inkscape:locked="false" />
    <sodipodi:guide
       position="113.75289,137.68995"
       orientation="0,-1"
       id="guide8"
       inkscape:locked="false" />
    <sodipodi:guide
       position="114.65831,161.47581"
       orientation="0,-1"
       id="guide9"
       inkscape:locked="false" />
    <sodipodi:guide
       position="126.18354,-2.6770677e-06"
       orientation="0,-1"
       id="guide10"
       inkscape:locked="false" />
    <sodipodi:guide
       position="106.5776,23.785851"
       orientation="0,-1"
       id="guide11"
       inkscape:locked="false" />
    <sodipodi:guide
       position="104.25193,-80.362899"
       orientation="0,-1"
       id="guide12"
       inkscape:locked="false" />
    <sodipodi:guide
       position="111.42515,-104.14875"
       orientation="0,-1"
       id="guide13"
       inkscape:locked="false" />
    <sodipodi:guide
       position="112.286,-218.05285"
       orientation="0,-1"
       id="guide14"
       inkscape:locked="false" />
    <sodipodi:guide
       position="117.4687,-241.83871"
       orientation="0,-1"
       id="guide15"
       inkscape:locked="false" />
    <sodipodi:guide
       position="108.40578,-127.3069"
       orientation="0,-1"
       id="guide16"
       inkscape:locked="false" />
    <sodipodi:guide
       position="100.12751,-194.97653"
       orientation="0,-1"
       id="guide17"
       inkscape:locked="false" />
  </sodipodi:namedview>
  <g
     inkscape:groupmode="layer"
     id="g4"
     inkscape:label="dark"
     style="display:inline"
     transform="translate(241.0164,5.6112635)">
    <rect
       style="display:inline;fill:#000000;fill-opacity:1;stroke:none;stroke-width:2.0244;stroke-linecap:square;stroke-miterlimit:2.3;paint-order:markers stroke fill"
       id="rect5"
       width="797.37024"
       height="194.56551"
       x="-241.0164"
       y="236.22746"
       inkscape:label="background" />
    <g
       style="display:inline;fill:#0062f8;fill-opacity:0.446602"
       transform="matrix(5.8876865,0,0,5.8876865,-568.27833,306.58873)"
       id="g3"
       inkscape:label="circles">
      <circle
         style="display:inline;fill:#0062f8;fill-opacity:0.446602;stroke:none;stroke-width:302.362;stroke-miterlimit:4;stroke-dasharray:none;stroke-dashoffset:161.197;stroke-opacity:1"
         id="circle1"
         cx="72.107216"
         cy="4.5725055"
         r="9.6730785"
         inkscape:label="small" />
      <circle
         style="display:inline;fill:#0062f8;fill-opacity:0.446602;stroke:none;stroke-width:428.643;stroke-miterlimit:4;stroke-dasharray:none;stroke-dashoffset:161.197;stroke-opacity:1"
         id="circle2"
         cx="72.107216"
         cy="4.5725055"
         r="13.713011"
         inkscape:label="medium" />
      <circle
         style="display:inline;fill:#0062f8;fill-opacity:0.446602;stroke:none;stroke-width:516.481;stroke-miterlimit:4;stroke-dasharray:none;stroke-dashoffset:161.197;stroke-opacity:1"
         id="circle3"
         cx="72.107216"
         cy="4.5725055"
         r="16.523087"
         inkscape:label="big" />
    </g>
    <g
       id="g5"
       style="display:inline;fill:#e6e6e6"
       inkscape:label="logo"
       transform="translate(-224.06334,241.83872)">
      <path
         id="path3"
         style="fill:#e6e6e6;stroke-width:355.553;stroke-linecap:round;stroke-linejoin:round;stroke-miterlimit:2.3;paint-order:fill markers stroke"
         d="m 80.326047,57.877579 a 26.752747,26.752747 0 0 0 -26.757729,26.75772 26.752747,26.752747 0 0 0 0.355777,4.325427 h 52.803915 a 26.752747,26.752747 0 0 0 0.35578,-4.325427 26.752747,26.752747 0 0 0 -26.757743,-26.75772 z"
         inkscape:label="app" />
      <path
         inkscape:connector-curvature="0"
         style="display:inline;fill:#e6e6e6;stroke-width:4.15564"
         id="path4"
         d="m 141.72941,87.511292 c -0.27036,-0.220024 -2.79675,-2.127682 -8.12017,-2.127682 -1.32983,0 -2.73855,0.124632 -4.19723,0.361433 -1.03052,-7.077067 -6.86091,-10.526234 -7.13107,-10.679982 l -1.43366,-0.831105 -0.94337,1.363054 c -1.17902,1.826063 -2.03773,3.839986 -2.53904,5.955013 -0.95583,4.039291 -0.3739,7.829232 1.67467,11.078959 -2.47673,1.375518 -6.4246,1.737047 -7.24746,1.74534 H 46.103913 c -1.716853,0.0068 -3.107653,1.395727 -3.116761,3.112612 1.179117,5.458916 1.156108,5.301996 3.063553,10.313696 2.264759,5.94255 5.630883,10.31844 10.010938,13.00715 4.907729,3.01284 12.89905,4.73743 21.925106,4.73743 4.222155,0 8.43597,-0.38262 12.175991,-1.10541 5.888584,-1.13446 11.24106,-3.08345 15.89952,-5.78046 4.07145,-2.35991 7.7342,-5.36307 10.84626,-8.89307 5.20282,-5.90104 6.55451,-6.94991 10.42156,-11.718366 0.31158,0.01438 0.61453,0.01917 0.91844,0.01917 5.69742,0 9.20476,-2.285601 11.13713,-4.197162 2.09862,-2.07782 2.8466,-4.147348 2.9256,-4.375894 l 0.40362,-1.196834 z"
         sodipodi:nodetypes="cscccccccccccsccccscccc"
         inkscape:label="wahle" />
    </g>
    <g
       id="text1157"
       style="font-size:55.66px;line-height:1.25;font-family:Comfortaa;-inkscape-font-specification:Comfortaa;letter-spacing:0px;word-spacing:0px;display:inline;fill:#000000;stroke-width:0.69575"
       aria-label="docker web"
       transform="matrix(6.7317198,0,0,6.7317198,-58.468582,-176.22368)">
      <path
         style="font-size:12.9873px;fill:#cccccc"
         d="m 18.474617,38.619916 v -3.842921 h 1.166827 v 9.867304 h -1.166827 v -1.065365 q -0.367805,0.634146 -0.932194,0.944877 -0.558048,0.30439 -1.344389,0.30439 -1.287315,0 -2.099021,-1.027316 -0.805365,-1.027316 -0.805365,-2.70146 0,-1.674144 0.805365,-2.70146 0.811706,-1.027315 2.099021,-1.027315 0.786341,0 1.344389,0.310731 0.564389,0.30439 0.932194,0.938535 z m -3.976093,2.479509 q 0,1.287316 0.526341,2.022924 0.532682,0.729268 1.458535,0.729268 0.925852,0 1.458535,-0.729268 0.532682,-0.735608 0.532682,-2.022924 0,-1.287315 -0.532682,-2.016583 -0.532683,-0.735608 -1.458535,-0.735608 -0.925853,0 -1.458535,0.735608 -0.526341,0.729268 -0.526341,2.016583 z m 10.298524,-2.739508 q -0.938536,0 -1.483901,0.735608 -0.545365,0.729268 -0.545365,2.0039 0,1.274633 0.539024,2.010241 0.545365,0.729268 1.490242,0.729268 0.932193,0 1.477559,-0.735609 0.545365,-0.735609 0.545365,-2.0039 0,-1.261949 -0.545365,-1.997558 -0.545366,-0.74195 -1.477559,-0.74195 z m 0,-0.989267 q 1.521949,0 2.390728,0.989267 0.868779,0.989267 0.868779,2.739508 0,1.7439 -0.868779,2.739509 -0.868779,0.989267 -2.390728,0.989267 -1.528291,0 -2.39707,-0.989267 -0.862438,-0.995609 -0.862438,-2.739509 0,-1.750241 0.862438,-2.739508 0.868779,-0.989267 2.39707,-0.989267 z m 10.304865,0.443901 v 1.090731 q -0.494634,-0.272683 -0.995609,-0.405853 -0.494633,-0.139512 -1.00195,-0.139512 -1.13512,0 -1.762924,0.722925 -0.627804,0.716585 -0.627804,2.016583 0,1.299998 0.627804,2.022924 0.627804,0.716585 1.762924,0.716585 0.507317,0 1.00195,-0.133171 0.500975,-0.139512 0.995609,-0.412194 v 1.078047 q -0.488292,0.228292 -1.014633,0.342439 -0.52,0.114146 -1.109755,0.114146 -1.604388,0 -2.549265,-1.008292 -0.944877,-1.008291 -0.944877,-2.720484 0,-1.737558 0.951219,-2.733167 0.957559,-0.995608 2.619021,-0.995608 0.539023,0 1.052681,0.114146 0.513658,0.107805 0.995609,0.329755 z m 1.984875,-3.037556 h 1.173169 v 5.827797 l 3.481459,-3.062923 h 1.490242 l -3.766825,3.322922 3.925361,3.779508 h -1.521949 l -3.608288,-3.468776 v 3.468776 h -1.173169 z m 13.177543,6.024382 v 0.570731 H 44.89946 q 0.0761,1.204876 0.722925,1.839022 0.65317,0.627804 1.813657,0.627804 0.672194,0 1.299998,-0.164878 0.634145,-0.164878 1.255608,-0.494634 v 1.103414 q -0.627804,0.266341 -1.287315,0.405853 -0.659512,0.139512 -1.338047,0.139512 -1.69951,0 -2.695119,-0.989267 Q 43.6819,42.849667 43.6819,41.16284 q 0,-1.7439 0.938536,-2.764875 0.944876,-1.027315 2.542923,-1.027315 1.433169,0 2.2639,0.925852 0.837072,0.919511 0.837072,2.504875 z m -1.166828,-0.342439 q -0.01268,-0.957559 -0.539024,-1.52829 -0.519999,-0.570731 -1.382437,-0.570731 -0.976584,0 -1.566339,0.551706 -0.583414,0.551707 -0.672195,1.553657 z m 7.197552,-1.826339 q -0.196585,-0.114146 -0.431219,-0.164878 -0.228292,-0.05707 -0.507316,-0.05707 -0.989267,0 -1.521949,0.646829 -0.526341,0.640487 -0.526341,1.845363 v 3.741459 h -1.173169 v -7.10243 h 1.173169 v 1.103413 q 0.367804,-0.646828 0.95756,-0.95756 0.589755,-0.317072 1.433169,-0.317072 0.120487,0 0.266341,0.01902 0.145853,0.01268 0.323414,0.04439 z"
         id="path3-2" />
      <path
         style="font-size:12.9873px;fill:#e6e6e6"
         d="m 60.968708,37.541869 h 1.166828 l 1.458534,5.542432 1.452193,-5.542432 h 1.376096 l 1.458535,5.542432 1.452193,-5.542432 h 1.166828 l -1.858047,7.10243 h -1.376095 l -1.528291,-5.821456 -1.534632,5.821456 h -1.376096 z m 17.375586,3.259508 v 0.570731 h -5.364871 q 0.0761,1.204876 0.722926,1.839022 0.65317,0.627804 1.813656,0.627804 0.672195,0 1.299999,-0.164878 0.634145,-0.164878 1.255608,-0.494634 v 1.103414 q -0.627804,0.266341 -1.287316,0.405853 -0.659511,0.139512 -1.338047,0.139512 -1.69951,0 -2.695118,-0.989267 -0.989267,-0.989267 -0.989267,-2.676094 0,-1.7439 0.938535,-2.764875 0.944877,-1.027315 2.542924,-1.027315 1.433169,0 2.263899,0.925852 0.837072,0.919511 0.837072,2.504875 z m -1.166827,-0.342439 q -0.01268,-0.957559 -0.539024,-1.52829 -0.519999,-0.570731 -1.382437,-0.570731 -0.976584,0 -1.56634,0.551706 -0.583414,0.551707 -0.672194,1.553657 z m 8.180478,0.640487 q 0,-1.287315 -0.532683,-2.016583 -0.52634,-0.735608 -1.452193,-0.735608 -0.925852,0 -1.458535,0.735608 -0.52634,0.729268 -0.52634,2.016583 0,1.287316 0.52634,2.022924 0.532683,0.729268 1.458535,0.729268 0.925853,0 1.452193,-0.729268 0.532683,-0.735608 0.532683,-2.022924 z m -3.969751,-2.479509 q 0.367804,-0.634145 0.925852,-0.938535 0.56439,-0.310731 1.344389,-0.310731 1.293656,0 2.099021,1.027315 0.811706,1.027316 0.811706,2.70146 0,1.674144 -0.811706,2.70146 -0.805365,1.027316 -2.099021,1.027316 -0.779999,0 -1.344389,-0.30439 -0.558048,-0.310731 -0.925852,-0.944877 v 1.065365 h -1.173169 v -9.867304 h 1.173169 z"
         id="path4-9" />
    </g>
    <g
       id="text1157-2"
       style="font-size:55.66px;line-height:1.25;font-family:Comfortaa;-inkscape-font-specification:Comfortaa;letter-spacing:0px;word-spacing:0px;display:inline;fill:#000000;stroke-width:0.69575"
       aria-label="docker web"
       transform="matrix(6.7324888,0,0,6.7324888,-58.478812,65.588292)">
      <path
         style="font-size:12.9873px;fill:#cccccc"
         d="m 18.474617,38.619916 v -3.842921 h 1.166827 v 9.867304 h -1.166827 v -1.065365 q -0.367805,0.634146 -0.932194,0.944877 -0.558048,0.30439 -1.344389,0.30439 -1.287315,0 -2.099021,-1.027316 -0.805365,-1.027316 -0.805365,-2.70146 0,-1.674144 0.805365,-2.70146 0.811706,-1.027315 2.099021,-1.027315 0.786341,0 1.344389,0.310731 0.564389,0.30439 0.932194,0.938535 z m -3.976093,2.479509 q 0,1.287316 0.526341,2.022924 0.532682,0.729268 1.458535,0.729268 0.925852,0 1.458535,-0.729268 0.532682,-0.735608 0.532682,-2.022924 0,-1.287315 -0.532682,-2.016583 -0.532683,-0.735608 -1.458535,-0.735608 -0.925853,0 -1.458535,0.735608 -0.526341,0.729268 -0.526341,2.016583 z m 10.298524,-2.739508 q -0.938536,0 -1.483901,0.735608 -0.545365,0.729268 -0.545365,2.0039 0,1.274633 0.539024,2.010241 0.545365,0.729268 1.490242,0.729268 0.932193,0 1.477559,-0.735609 0.545365,-0.735609 0.545365,-2.0039 0,-1.261949 -0.545365,-1.997558 -0.545366,-0.74195 -1.477559,-0.74195 z m 0,-0.989267 q 1.521949,0 2.390728,0.989267 0.868779,0.989267 0.868779,2.739508 0,1.7439 -0.868779,2.739509 -0.868779,0.989267 -2.390728,0.989267 -1.528291,0 -2.39707,-0.989267 -0.862438,-0.995609 -0.862438,-2.739509 0,-1.750241 0.862438,-2.739508 0.868779,-0.989267 2.39707,-0.989267 z m 10.304865,0.443901 v 1.090731 q -0.494634,-0.272683 -0.995609,-0.405853 -0.494633,-0.139512 -1.00195,-0.139512 -1.13512,0 -1.762924,0.722925 -0.627804,0.716585 -0.627804,2.016583 0,1.299998 0.627804,2.022924 0.627804,0.716585 1.762924,0.716585 0.507317,0 1.00195,-0.133171 0.500975,-0.139512 0.995609,-0.412194 v 1.078047 q -0.488292,0.228292 -1.014633,0.342439 -0.52,0.114146 -1.109755,0.114146 -1.604388,0 -2.549265,-1.008292 -0.944877,-1.008291 -0.944877,-2.720484 0,-1.737558 0.951219,-2.733167 0.957559,-0.995608 2.619021,-0.995608 0.539023,0 1.052681,0.114146 0.513658,0.107805 0.995609,0.329755 z m 1.984875,-3.037556 h 1.173169 v 5.827797 l 3.481459,-3.062923 h 1.490242 l -3.766825,3.322922 3.925361,3.779508 h -1.521949 l -3.608288,-3.468776 v 3.468776 h -1.173169 z m 13.177543,6.024382 v 0.570731 H 44.89946 q 0.0761,1.204876 0.722925,1.839022 0.65317,0.627804 1.813657,0.627804 0.672194,0 1.299998,-0.164878 0.634145,-0.164878 1.255608,-0.494634 v 1.103414 q -0.627804,0.266341 -1.287315,0.405853 -0.659512,0.139512 -1.338047,0.139512 -1.69951,0 -2.695119,-0.989267 Q 43.6819,42.849667 43.6819,41.16284 q 0,-1.7439 0.938536,-2.764875 0.944876,-1.027315 2.542923,-1.027315 1.433169,0 2.2639,0.925852 0.837072,0.919511 0.837072,2.504875 z m -1.166828,-0.342439 q -0.01268,-0.957559 -0.539024,-1.52829 -0.519999,-0.570731 -1.382437,-0.570731 -0.976584,0 -1.566339,0.551706 -0.583414,0.551707 -0.672195,1.553657 z m 7.197552,-1.826339 q -0.196585,-0.114146 -0.431219,-0.164878 -0.228292,-0.05707 -0.507316,-0.05707 -0.989267,0 -1.521949,0.646829 -0.526341,0.640487 -0.526341,1.845363 v 3.741459 h -1.173169 v -7.10243 h 1.173169 v 1.103413 q 0.367804,-0.646828 0.95756,-0.95756 0.589755,-0.317072 1.433169,-0.317072 0.120487,0 0.266341,0.01902 0.145853,0.01268 0.323414,0.04439 z"
         id="path3-2-7" />
      <path
         style="font-size:12.9873px;fill:#e6e6e6"
         d="m 60.968708,37.541869 h 1.166828 l 1.458534,5.542432 1.452193,-5.542432 h 1.376096 l 1.458535,5.542432 1.452193,-5.542432 h 1.166828 l -1.858047,7.10243 h -1.376095 l -1.528291,-5.821456 -1.534632,5.821456 h -1.376096 z m 17.375586,3.259508 v 0.570731 h -5.364871 q 0.0761,1.204876 0.722926,1.839022 0.65317,0.627804 1.813656,0.627804 0.672195,0 1.299999,-0.164878 0.634145,-0.164878 1.255608,-0.494634 v 1.103414 q -0.627804,0.266341 -1.287316,0.405853 -0.659511,0.139512 -1.338047,0.139512 -1.69951,0 -2.695118,-0.989267 -0.989267,-0.989267 -0.989267,-2.676094 0,-1.7439 0.938535,-2.764875 0.944877,-1.027315 2.542924,-1.027315 1.433169,0 2.263899,0.925852 0.837072,0.919511 0.837072,2.504875 z m -1.166827,-0.342439 q -0.01268,-0.957559 -0.539024,-1.52829 -0.519999,-0.570731 -1.382437,-0.570731 -0.976584,0 -1.56634,0.551706 -0.583414,0.551707 -0.672194,1.553657 z m 8.180478,0.640487 q 0,-1.287315 -0.532683,-2.016583 -0.52634,-0.735608 -1.452193,-0.735608 -0.925852,0 -1.458535,0.735608 -0.52634,0.729268 -0.52634,2.016583 0,1.287316 0.52634,2.022924 0.532683,0.729268 1.458535,0.729268 0.925853,0 1.452193,-0.729268 0.532683,-0.735608 0.532683,-2.022924 z m -3.969751,-2.479509 q 0.367804,-0.634145 0.925852,-0.938535 0.56439,-0.310731 1.344389,-0.310731 1.293656,0 2.099021,1.027315 0.811706,1.027316 0.811706,2.70146 0,1.674144 -0.811706,2.70146 -0.805365,1.027316 -2.099021,1.027316 -0.779999,0 -1.344389,-0.30439 -0.558048,-0.310731 -0.925852,-0.944877 v 1.065365 h -1.173169 v -9.867304 h 1.173169 z"
         id="path4-9-0" />
    </g>
  </g>
  <g
     inkscape:groupmode="layer"
     id="layer2"
     inkscape:label="bright"
     style="display:inline;fill:#ffffff"
     transform="translate(16.224182,8.3220272)">
    <g
       style="display:inline;fill:#0062f8;fill-opacity:0.446602"
       transform="matrix(5.8876865,0,0,5.8876865,-343.48611,62.039248)"
       id="g1236-3-3-2"
       inkscape:label="circles">
      <circle
         style="display:inline;fill:#0062f8;fill-opacity:0.446602;stroke:none;stroke-width:302.362;stroke-miterlimit:4;stroke-dasharray:none;stroke-dashoffset:161.197;stroke-opacity:1"
         id="path1180-2-6-6-9"
         cx="72.107216"
         cy="4.5725055"
         r="9.6730785"
         inkscape:label="small" />
      <circle
         style="display:inline;fill:#0062f8;fill-opacity:0.446602;stroke:none;stroke-width:428.643;stroke-miterlimit:4;stroke-dasharray:none;stroke-dashoffset:161.197;stroke-opacity:1"
         id="path1180-9-7-7-1"
         cx="72.107216"
         cy="4.5725055"
         r="13.713011"
         inkscape:label="medium" />
      <circle
         style="display:inline;fill:#0062f8;fill-opacity:0.446602;stroke:none;stroke-width:516.481;stroke-miterlimit:4;stroke-dasharray:none;stroke-dashoffset:161.197;stroke-opacity:1"
         id="path1180-1-5-5-27"
         cx="72.107216"
         cy="4.5725055"
         r="16.523087"
         inkscape:label="big" />
    </g>
    <g
       id="g6"
       inkscape:label="logo">
      <path
         id="path1"
         style="fill:#ffffff;stroke-width:355.553;stroke-linecap:round;stroke-linejoin:round;stroke-miterlimit:2.3;paint-order:fill markers stroke"
         d="m 81.054927,55.166816 a 26.752747,26.752747 0 0 0 -26.757729,26.75772 26.752747,26.752747 0 0 0 0.355777,4.325427 h 52.803915 a 26.752747,26.752747 0 0 0 0.35578,-4.325427 26.752747,26.752747 0 0 0 -26.757743,-26.75772 z"
         inkscape:label="app" />
      <path
         inkscape:connector-curvature="0"
         style="display:inline;fill:#ffffff;stroke-width:4.15564"
         id="path881-7-5-5-0"
         d="m 142.45829,84.800529 c -0.27036,-0.220024 -2.79675,-2.127682 -8.12017,-2.127682 -1.32983,0 -2.73855,0.124632 -4.19723,0.361433 -1.03052,-7.077067 -6.86091,-10.526234 -7.13107,-10.679982 l -1.43366,-0.831105 -0.94337,1.363054 c -1.17902,1.826063 -2.03773,3.839986 -2.53904,5.955013 -0.95583,4.039291 -0.3739,7.829232 1.67467,11.078959 -2.47673,1.375518 -6.4246,1.737047 -7.24746,1.74534 H 46.832793 c -1.716853,0.0068 -3.107653,1.395727 -3.116761,3.112612 1.179117,5.458909 1.156108,5.301989 3.063553,10.313689 2.264759,5.94255 5.630883,10.31844 10.010938,13.00715 4.907729,3.01284 12.89905,4.73743 21.925106,4.73743 4.222155,0 8.43597,-0.38262 12.175991,-1.10541 5.888584,-1.13446 11.24106,-3.08345 15.89952,-5.78046 4.07145,-2.35991 7.7342,-5.36307 10.84626,-8.89307 5.20282,-5.90104 6.55451,-6.94991 10.42156,-11.718359 0.31158,0.01438 0.61453,0.01917 0.91844,0.01917 5.69742,0 9.20476,-2.285601 11.13713,-4.197162 2.09862,-2.07782 2.8466,-4.147348 2.9256,-4.375894 l 0.40362,-1.196834 z"
         sodipodi:nodetypes="cscccccccccccsccccscccc"
         inkscape:label="wahle" />
    </g>
  </g>
</svg>
