<?xml version="1.0" encoding="UTF-8" standalone="no"?>
<svg
   xmlns:dc="http://purl.org/dc/elements/1.1/"
   xmlns:cc="http://creativecommons.org/ns#"
   xmlns:rdf="http://www.w3.org/1999/02/22-rdf-syntax-ns#"
   xmlns:svg="http://www.w3.org/2000/svg"
   xmlns="http://www.w3.org/2000/svg"
   xmlns:sodipodi="http://sodipodi.sourceforge.net/DTD/sodipodi-0.dtd"
   xmlns:inkscape="http://www.inkscape.org/namespaces/inkscape"
   class="MuiBox-root css-15p9n5u"
   viewBox="0 0 104.43702 17.253"
   style="fill:#ffffff"
   data-darkreader-inline-fill=""
   version="1.1"
   id="svg885"
   sodipodi:docname="docker.svg"
   width="104.43702"
   height="17.253"
   inkscape:version="0.92.5 (2060ec1f9f, 2020-04-08)">
  <metadata
     id="metadata891">
    <rdf:RDF>
      <cc:Work
         rdf:about="">
        <dc:format>image/svg+xml</dc:format>
        <dc:type
           rdf:resource="http://purl.org/dc/dcmitype/StillImage" />
        <dc:title />
      </cc:Work>
    </rdf:RDF>
  </metadata>
  <defs
     id="defs889" />
  <sodipodi:namedview
     pagecolor="#ffffff"
     bordercolor="#666666"
     borderopacity="1"
     objecttolerance="10"
     gridtolerance="10"
     guidetolerance="10"
     inkscape:pageopacity="0"
     inkscape:pageshadow="2"
     inkscape:window-width="1720"
     inkscape:window-height="1372"
     id="namedview887"
     showgrid="false"
     fit-margin-top="0"
     fit-margin-left="0"
     fit-margin-right="0"
     fit-margin-bottom="0"
     inkscape:zoom="6.2135417"
     inkscape:cx="36.432719"
     inkscape:cy="-16.032146"
     inkscape:window-x="0"
     inkscape:window-y="32"
     inkscape:window-maximized="0"
     inkscape:current-layer="layer2" />
  <g
     inkscape:groupmode="layer"
     id="layer2"
     inkscape:label="Layer 2"
     style="display:inline"
     transform="translate(15.1855,-3.3520995)">
    <g
       transform="translate(-15.187351,2.9780995)"
       id="g899">
      <path
         inkscape:connector-curvature="0"
         style="fill:#ffffff"
         id="path881"
         d="M 23.763,6.886 C 23.698,6.833 23.09,6.374 21.809,6.374 c -0.32,0 -0.659,0.03 -1.01,0.087 -0.248,-1.703 -1.651,-2.533 -1.716,-2.57 l -0.345,-0.2 -0.227,0.328 A 4.596,4.596 0 0 0 17.9,5.452 c -0.23,0.972 -0.09,1.884 0.403,2.666 -0.596,0.331 -1.546,0.418 -1.744,0.42 H 0.752 a 0.753,0.753 0 0 0 -0.75,0.749 c -0.007,1.456 0.233,2.864 0.692,4.07 0.545,1.43 1.355,2.483 2.409,3.13 1.181,0.725 3.104,1.14 5.276,1.14 1.016,0 2.03,-0.092 2.93,-0.266 1.417,-0.273 2.705,-0.742 3.826,-1.391 a 10.497,10.497 0 0 0 2.61,-2.14 c 1.252,-1.42 1.998,-3.005 2.553,-4.408 0.075,0.003 0.148,0.005 0.221,0.005 1.371,0 2.215,-0.55 2.68,-1.01 0.505,-0.5 0.685,-0.998 0.704,-1.053 L 24,7.076 Z" />
      <path
         inkscape:connector-curvature="0"
         style="fill:#ffffff"
         id="path883"
         d="M 2.216,8.075 H 4.335 A 0.186,0.186 0 0 0 4.52,7.889 V 6 A 0.186,0.186 0 0 0 4.335,5.814 H 2.216 A 0.186,0.186 0 0 0 2.031,6 v 1.89 c 0,0.103 0.083,0.186 0.185,0.186 z m 2.92,0 H 7.254 A 0.185,0.185 0 0 0 7.439,7.889 V 6 A 0.185,0.185 0 0 0 7.254,5.814 H 5.136 A 0.185,0.185 0 0 0 4.95,6 v 1.89 c 0,0.103 0.083,0.186 0.186,0.186 z m 2.964,0 h 2.118 A 0.186,0.186 0 0 0 10.403,7.889 V 6 A 0.186,0.186 0 0 0 10.218,5.814 H 8.1 A 0.185,0.185 0 0 0 7.914,6 v 1.89 c 0,0.103 0.083,0.186 0.186,0.186 z m 2.928,0 h 2.119 A 0.185,0.185 0 0 0 13.332,7.889 V 6 A 0.185,0.185 0 0 0 13.147,5.814 H 11.028 A 0.186,0.186 0 0 0 10.843,6 v 1.89 c 0,0.103 0.083,0.186 0.185,0.186 z M 5.136,5.355 H 7.254 A 0.185,0.185 0 0 0 7.439,5.169 V 3.28 A 0.186,0.186 0 0 0 7.254,3.094 H 5.136 A 0.186,0.186 0 0 0 4.95,3.28 v 1.89 c 0,0.103 0.083,0.186 0.186,0.186 z m 2.964,0 h 2.118 A 0.186,0.186 0 0 0 10.403,5.169 V 3.28 A 0.186,0.186 0 0 0 10.218,3.094 H 8.1 A 0.186,0.186 0 0 0 7.914,3.28 v 1.89 c 0,0.103 0.083,0.186 0.186,0.186 z m 2.928,0 h 2.119 A 0.185,0.185 0 0 0 13.332,5.169 V 3.28 A 0.186,0.186 0 0 0 13.147,3.094 H 11.028 A 0.186,0.186 0 0 0 10.843,3.28 v 1.89 c 0,0.103 0.083,0.186 0.185,0.186 z m 0,-2.72 h 2.119 A 0.186,0.186 0 0 0 13.332,2.449 V 0.56 A 0.185,0.185 0 0 0 13.147,0.374 H 11.028 A 0.186,0.186 0 0 0 10.843,0.56 v 1.89 c 0,0.103 0.083,0.186 0.185,0.186 z m 2.955,5.44 h 2.118 A 0.185,0.185 0 0 0 16.287,7.889 V 6 A 0.185,0.185 0 0 0 16.101,5.814 H 13.983 A 0.185,0.185 0 0 0 13.798,6 v 1.89 c 0,0.103 0.083,0.186 0.185,0.186 z" />
    </g>
    <g
       aria-label="docker"
       style="font-style:normal;font-variant:normal;font-weight:normal;font-stretch:normal;font-size:80px;line-height:1.25;font-family:Comfortaa;-inkscape-font-specification:Comfortaa;font-variant-ligatures:normal;font-variant-caps:normal;font-variant-numeric:normal;text-align:start;letter-spacing:0px;word-spacing:0px;writing-mode:lr-tb;text-anchor:start;fill:#d4d4d4;fill-opacity:1;stroke:none"
       id="text939">
      <path
         d="m 17.460955,17.2186 q -1.053333,0 -1.893333,-0.48 -0.84,-0.493333 -1.333334,-1.333333 -0.48,-0.84 -0.48,-1.906667 0,-1.053333 0.466667,-1.893333 0.48,-0.84 1.293333,-1.32 0.813334,-0.4933332 1.84,-0.4933332 0.893334,0 1.613334,0.3866672 0.72,0.373333 1.16,0.999999 V 7.2586006 q 0,-0.24 0.146666,-0.3733334 0.146667,-0.1466666 0.373334,-0.1466666 0.226666,0 0.373333,0.1466666 0.146667,0.1333334 0.146667,0.3733334 v 6.2933334 q -0.02667,1.04 -0.52,1.88 -0.48,0.826666 -1.32,1.306666 -0.826667,0.48 -1.866667,0.48 z m 0,-0.933333 q 0.773333,0 1.373333,-0.36 0.613334,-0.373333 0.96,-1 0.36,-0.626667 0.36,-1.426667 0,-0.786666 -0.36,-1.413333 -0.346666,-0.64 -0.96,-1 -0.6,-0.36 -1.373333,-0.36 -0.76,0 -1.373333,0.36 -0.613334,0.36 -0.973334,1 -0.36,0.626667 -0.36,1.413333 0,0.8 0.36,1.426667 0.36,0.626667 0.973334,1 0.613333,0.36 1.373333,0.36 z"
         style="font-size:13.33333302px;fill:#d4d4d4;fill-opacity:1"
         id="path827" />
      <path
         d="m 26.887606,17.2186 q -1.066667,0 -1.906667,-0.48 -0.84,-0.48 -1.32,-1.32 -0.48,-0.84 -0.48,-1.906666 0,-1.08 0.48,-1.92 0.48,-0.84 1.32,-1.32 0.84,-0.4800002 1.906667,-0.4800002 1.066667,0 1.893333,0.4800002 0.84,0.48 1.32,1.32 0.48,0.84 0.493334,1.92 0,1.066666 -0.493334,1.906666 -0.48,0.84 -1.32,1.32 -0.826666,0.48 -1.893333,0.48 z m 0,-0.933333 q 0.773333,0 1.386667,-0.36 0.613333,-0.36 0.96,-0.986667 0.346666,-0.626666 0.346666,-1.426666 0,-0.8 -0.346666,-1.426667 -0.346667,-0.64 -0.96,-1 -0.613334,-0.36 -1.386667,-0.36 -0.773333,0 -1.386667,0.36 -0.613333,0.36 -0.973333,1 -0.346667,0.626667 -0.346667,1.426667 0,0.8 0.346667,1.426666 0.36,0.626667 0.973333,0.986667 0.613334,0.36 1.386667,0.36 z"
         style="font-size:13.33333302px;fill:#d4d4d4;fill-opacity:1"
         id="path829" />
      <path
         d="m 35.847581,17.2186 q -1.053333,0 -1.88,-0.48 -0.813333,-0.493333 -1.293333,-1.333333 -0.466667,-0.84 -0.466667,-1.893333 0,-1.066667 0.453334,-1.906667 0.453333,-0.84 1.24,-1.32 0.786666,-0.4933332 1.813333,-0.4933332 0.813333,0 1.493333,0.3200002 0.693334,0.32 1.213334,0.96 0.146666,0.16 0.106666,0.346666 -0.04,0.173334 -0.226666,0.306667 -0.146667,0.106667 -0.333334,0.08 -0.173333,-0.04 -0.306666,-0.2 -0.773334,-0.88 -1.946667,-0.88 -0.746667,0 -1.32,0.36 -0.56,0.36 -0.88,0.986667 -0.306667,0.626666 -0.306667,1.44 0,0.8 0.333334,1.426666 0.333333,0.626667 0.933333,0.986667 0.6,0.36 1.373333,0.36 0.52,0 0.946667,-0.133333 0.44,-0.146667 0.773333,-0.44 0.16,-0.133334 0.333334,-0.146667 0.173333,-0.01333 0.32,0.106667 0.16,0.146666 0.173333,0.333333 0.02667,0.186667 -0.12,0.32 -0.973333,0.893333 -2.426667,0.893333 z"
         style="font-size:13.33333302px;fill:#d4d4d4;fill-opacity:1"
         id="path831" />
      <path
         d="m 41.367571,14.711934 -0.626667,-0.68 4.56,-4.1200002 q 0.16,-0.1466666 0.333333,-0.1333333 0.173334,0 0.32,0.16 0.146667,0.1600005 0.133334,0.3466665 0,0.173333 -0.16,0.306667 z m -0.333333,2.44 q -0.226667,0 -0.373334,-0.133334 -0.133333,-0.146666 -0.133333,-0.373333 V 7.2452672 q 0,-0.2266666 0.133333,-0.36 0.146667,-0.1466666 0.373334,-0.1466666 0.226666,0 0.36,0.1466666 0.146666,0.1333334 0.146666,0.36 v 9.3999998 q 0,0.226667 -0.146666,0.373333 -0.133334,0.133334 -0.36,0.133334 z m 4.933333,-0.06667 q -0.173334,0.146667 -0.36,0.12 -0.186667,-0.01333 -0.32,-0.186667 l -2.973333,-3.653333 0.719999,-0.64 3,3.693333 q 0.133334,0.16 0.12,0.346667 -0.01333,0.173333 -0.186666,0.32 z"
         style="font-size:13.33333302px;fill:#d4d4d4;fill-opacity:1"
         id="path833" />
      <path
         d="m 50.794202,17.2186 q -1.08,0 -1.92,-0.466666 -0.826666,-0.48 -1.306666,-1.32 -0.466667,-0.84 -0.466667,-1.92 0,-1.093334 0.44,-1.92 0.453333,-0.84 1.24,-1.32 0.786667,-0.4800002 1.813333,-0.4800002 1.013334,0 1.76,0.4666672 0.76,0.453333 1.173333,1.266666 0.413334,0.813333 0.413334,1.853333 0,0.213334 -0.133334,0.346667 -0.133333,0.12 -0.346666,0.12 h -5.666667 v -0.853333 h 5.773333 l -0.573333,0.413333 q 0.01333,-0.773333 -0.28,-1.386667 -0.293333,-0.613333 -0.84,-0.96 -0.533333,-0.346666 -1.28,-0.346666 -0.76,0 -1.333333,0.36 -0.573333,0.36 -0.893333,1 -0.306667,0.626666 -0.306667,1.44 0,0.813333 0.346667,1.44 0.36,0.626666 0.973333,0.986666 0.613333,0.36 1.413333,0.36 0.48,0 0.96,-0.16 0.493334,-0.173333 0.786667,-0.426666 0.146667,-0.12 0.333333,-0.12 0.186667,-0.01333 0.32,0.09333 0.173333,0.16 0.173333,0.346667 0.01333,0.186666 -0.146666,0.32 -0.44,0.373333 -1.12,0.626666 -0.68,0.24 -1.306667,0.24 z"
         style="font-size:13.33333302px;fill:#d4d4d4;fill-opacity:1"
         id="path835" />
      <path
         d="m 56.100848,12.6586 q 0.04,-0.826666 0.426666,-1.48 0.4,-0.653333 1.026667,-1.026666 0.64,-0.3733335 1.413333,-0.3733335 0.613334,0 0.946667,0.1733333 0.333333,0.1733332 0.253333,0.5066662 -0.05333,0.2 -0.186666,0.266667 -0.12,0.06667 -0.306667,0.05333 -0.173333,-0.01333 -0.4,-0.02667 -0.746667,-0.06667 -1.333333,0.16 -0.573334,0.213333 -0.92,0.666666 -0.333334,0.453334 -0.333334,1.08 z m 0.08,4.493334 q -0.24,0 -0.373334,-0.133334 -0.133333,-0.133333 -0.133333,-0.373333 v -6.28 q 0,-0.24 0.133333,-0.3733332 0.133334,-0.1333333 0.373334,-0.1333333 0.24,0 0.373333,0.1333333 0.133333,0.1333332 0.133333,0.3733332 v 6.28 q 0,0.24 -0.133333,0.373333 -0.133333,0.133334 -0.373333,0.133334 z"
         style="font-size:13.33333302px;fill:#d4d4d4;fill-opacity:1"
         id="path837" />
    </g>
    <g
       aria-label="hub"
       style="font-style:normal;font-variant:normal;font-weight:normal;font-stretch:normal;font-size:80px;line-height:1.25;font-family:Comfortaa;-inkscape-font-specification:Comfortaa;font-variant-ligatures:normal;font-variant-caps:normal;font-variant-numeric:normal;text-align:start;letter-spacing:0px;word-spacing:0px;writing-mode:lr-tb;text-anchor:start;display:inline;fill:#d4d4d4;fill-opacity:1;stroke:none"
       id="text939-3">
      <path
         d="m 64.304904,14.171932 q -0.24,0 -0.386667,-0.146666 -0.133333,-0.146667 -0.133333,-0.373334 V 7.2519325 q 0,-0.24 0.133333,-0.3733333 0.146667,-0.1466667 0.386667,-0.1466667 0.226666,0 0.36,0.1466667 0.146666,0.1333333 0.146666,0.3733333 v 6.3999995 q 0,0.226667 -0.146666,0.373334 -0.133334,0.146666 -0.36,0.146666 z m 5.733333,2.973334 q -0.226667,0 -0.373333,-0.146667 -0.146667,-0.146667 -0.146667,-0.36 v -3.466667 q 0,-0.826666 -0.32,-1.36 -0.306667,-0.533333 -0.853333,-0.8 -0.533334,-0.266666 -1.213334,-0.266666 -0.653333,0 -1.186666,0.253333 -0.52,0.253333 -0.826667,0.693333 -0.306667,0.44 -0.306667,1 h -0.733333 q 0.02667,-0.84 0.453333,-1.493333 0.426667,-0.666667 1.133334,-1.04 0.706666,-0.3866666 1.573333,-0.3866666 0.946667,0 1.693333,0.3999996 0.746667,0.386667 1.173334,1.146667 0.44,0.76 0.44,1.853333 v 3.466667 q 0,0.213333 -0.146667,0.36 -0.146667,0.146667 -0.36,0.146667 z m -5.733333,0 q -0.24,0 -0.386667,-0.133334 -0.133333,-0.146666 -0.133333,-0.373333 v -6.266667 q 0,-0.24 0.133333,-0.3733329 0.146667,-0.1466667 0.386667,-0.1466667 0.226666,0 0.36,0.1466667 0.146666,0.1333329 0.146666,0.3733329 v 6.266667 q 0,0.226667 -0.146666,0.373333 -0.133334,0.133334 -0.36,0.133334 z"
         style="font-size:13.33333302px;fill:#d4d4d4;fill-opacity:0.62621346"
         id="path820" />
      <path
         d="m 75.984879,17.225266 q -0.946667,0 -1.693334,-0.386667 -0.746666,-0.4 -1.186666,-1.16 -0.426667,-0.76 -0.426667,-1.853333 v -3.466667 q 0,-0.213333 0.146667,-0.3599999 0.146667,-0.1466667 0.36,-0.1466667 0.226667,0 0.373333,0.1466667 0.146667,0.1466669 0.146667,0.3599999 v 3.466667 q 0,0.826666 0.306667,1.36 0.319999,0.533333 0.853333,0.8 0.546666,0.266666 1.226666,0.266666 0.653334,0 1.173334,-0.253333 0.533333,-0.253333 0.84,-0.693333 0.306666,-0.44 0.306666,-1 h 0.733334 q -0.04,0.84 -0.466667,1.506666 -0.413333,0.653334 -1.12,1.04 -0.706667,0.373334 -1.573333,0.373334 z m 2.933333,-0.08 q -0.226667,0 -0.373333,-0.133334 -0.133334,-0.146666 -0.133334,-0.386666 v -6.266667 q 0,-0.226667 0.133334,-0.3599999 0.146666,-0.1466667 0.373333,-0.1466667 0.226667,0 0.373333,0.1466667 0.146667,0.1333329 0.146667,0.3599999 v 6.266667 q 0,0.24 -0.146667,0.386666 -0.146666,0.133334 -0.373333,0.133334 z"
         style="font-size:13.33333302px;fill:#d4d4d4;fill-opacity:0.62621346"
         id="path822" />
      <path
         d="m 85.531521,17.211932 q -1.04,0 -1.88,-0.48 -0.826667,-0.48 -1.32,-1.306666 -0.48,-0.84 -0.493334,-1.88 V 7.2519325 q 0,-0.24 0.133334,-0.3733333 0.146666,-0.1466667 0.386666,-0.1466667 0.226667,0 0.36,0.1466667 0.146667,0.1333333 0.146667,0.3733333 v 3.9199995 q 0.44,-0.626666 1.16,-1 0.733333,-0.3866662 1.626667,-0.3866662 1.026666,0 1.84,0.4933332 0.813333,0.48 1.28,1.32 0.48,0.84 0.48,1.893333 0,1.066667 -0.493334,1.906667 -0.48,0.84 -1.32,1.333333 -0.84,0.48 -1.906666,0.48 z m 0,-0.933333 q 0.773333,0 1.386666,-0.36 0.613334,-0.373333 0.96,-1 0.36,-0.626667 0.36,-1.426667 0,-0.786666 -0.36,-1.413333 -0.346666,-0.64 -0.96,-1 -0.613333,-0.36 -1.386666,-0.36 -0.76,0 -1.373334,0.36 -0.613333,0.36 -0.96,1 -0.346666,0.626667 -0.346666,1.413333 0,0.8 0.346666,1.426667 0.346667,0.626667 0.96,1 0.613334,0.36 1.373334,0.36 z"
         style="font-size:13.33333302px;fill:#d4d4d4;fill-opacity:0.62621346"
         id="path824" />
    </g>
  </g>
</svg>
