<svg width="200" height="53" viewBox="0 0 200 53" fill="none" xmlns="http://www.w3.org/2000/svg">
<path d="M23.5271 53C21.1118 53 19.1462 51.0733 19.0808 48.6718L6.56493 41.4398C5.91407 41.7926 5.21194 41.9662 4.51663 41.9762L4.44785 41.9766C2.9124 41.9749 1.41966 41.1766 0.596713 39.75C-0.610972 37.6565 0.0734476 34.9893 2.11894 33.7319L2.11894 19.2681C0.0734476 18.0107 -0.610972 15.3435 0.596713 13.25C1.40738 11.8447 2.86799 11.0491 4.37913 11.024L4.44785 11.0234C5.16557 11.0226 5.89261 11.1958 6.56494 11.5602L19.0808 4.32825C19.1455 1.95115 21.072 0.0392523 23.4536 0.00060684L23.5271 1.14436e-05C25.9424 1.14436e-05 27.9081 1.9267 27.9735 4.32821L40.4891 11.5603C41.1401 11.2074 41.8422 11.0338 42.5376 11.0238L42.6064 11.0234C44.1418 11.0252 45.6346 11.8234 46.4575 13.25C47.6652 15.3435 46.9808 18.0106 44.9355 19.268L44.9355 33.732C46.9808 34.9894 47.6652 37.6565 46.4575 39.75C45.6469 41.1553 44.1863 41.9509 42.6751 41.976L42.6064 41.9766C41.8886 41.9774 41.1615 41.8042 40.4892 41.4398L27.9735 48.6718C27.9088 51.0489 25.9822 52.9608 23.6007 52.9994L23.5271 53ZM23.5271 6.57163L23.5852 6.57085C23.5878 6.57078 23.5904 6.5707 23.593 6.57062L23.5852 6.57085C23.6039 6.57034 23.6226 6.56959 23.6412 6.5686L23.593 6.57062C23.613 6.57001 23.6328 6.56913 23.6526 6.56797L23.6412 6.5686C23.6599 6.5676 23.6786 6.56636 23.6972 6.56488L23.6526 6.56797C23.6781 6.56648 23.7035 6.56454 23.7287 6.56215L23.6972 6.56488C23.7128 6.56364 23.7284 6.56223 23.7439 6.56064L23.7287 6.56215C23.7466 6.56046 23.7645 6.55854 23.7822 6.55641L23.7439 6.56064C23.7637 6.55863 23.7834 6.55635 23.803 6.5538L23.7822 6.55641C23.7979 6.55453 23.8135 6.55247 23.8291 6.55025L23.803 6.5538C23.8236 6.55111 23.8442 6.54811 23.8647 6.54483L23.8291 6.55025C23.8475 6.54763 23.8657 6.54477 23.8839 6.54169L23.8647 6.54483C23.8824 6.54199 23.9001 6.53893 23.9177 6.53565L23.8839 6.54169C23.9017 6.53867 23.9194 6.53542 23.937 6.53196L23.9177 6.53565C23.9338 6.53265 23.9498 6.52947 23.9658 6.52611L23.937 6.53196C24.0039 6.51885 24.0696 6.50258 24.134 6.48333C24.1394 6.48177 24.1449 6.48013 24.1503 6.47847L24.134 6.48333C24.1471 6.47942 24.1602 6.47538 24.1731 6.47122L24.1503 6.47847C24.1666 6.47344 24.1829 6.46822 24.1991 6.46281L24.1731 6.47122C24.1934 6.46473 24.2136 6.45794 24.2336 6.45085L24.1991 6.46281C24.2156 6.45731 24.232 6.45162 24.2483 6.44573L24.2336 6.45085C25.056 6.15972 25.6452 5.3746 25.6452 4.45175C25.6452 3.28097 24.6969 2.33188 23.5271 2.33188C22.3573 2.33188 21.409 3.28097 21.409 4.45175C21.409 5.31465 21.9242 6.05714 22.6634 6.38797C22.666 6.38935 22.6686 6.39053 22.6713 6.39171L22.6634 6.38797C22.7101 6.40884 22.7576 6.42807 22.806 6.44559C22.8109 6.44751 22.8158 6.44925 22.8207 6.45099L22.806 6.44559C22.8223 6.4515 22.8387 6.45721 22.8551 6.46272L22.8207 6.45099C22.8407 6.45806 22.8609 6.46483 22.8811 6.47131L22.8551 6.46272C22.8714 6.46816 22.8877 6.4734 22.9041 6.47845L22.8811 6.47131C22.893 6.47509 22.9048 6.47877 22.9168 6.48234L22.9041 6.47845C22.9645 6.49701 23.026 6.51294 23.0885 6.52612C23.0981 6.52812 23.1076 6.53007 23.1173 6.53196L23.0885 6.52612C23.1044 6.52948 23.1204 6.53265 23.1365 6.53565L23.1173 6.53196C23.1349 6.53542 23.1526 6.53866 23.1704 6.54168L23.1365 6.53565C23.1541 6.53894 23.1718 6.54201 23.1895 6.54485L23.1704 6.54168C23.1886 6.54476 23.2068 6.54761 23.2251 6.55022L23.1895 6.54485C23.2102 6.54817 23.231 6.55118 23.2518 6.55389L23.2251 6.55022C23.2404 6.55241 23.2558 6.55443 23.2712 6.55629L23.2518 6.55389C23.2712 6.5564 23.2906 6.55865 23.3101 6.56064L23.2712 6.55629C23.2899 6.55855 23.3087 6.56057 23.3276 6.56233L23.3101 6.56064C23.3255 6.5622 23.3409 6.5636 23.3563 6.56484L23.3276 6.56233C23.3519 6.56461 23.3763 6.56647 23.4008 6.56791L23.3563 6.56484C23.3753 6.56635 23.3943 6.56762 23.4134 6.56863L23.4008 6.56791C23.4208 6.56909 23.4408 6.56999 23.4609 6.57061L23.4134 6.56863C23.4511 6.57062 23.489 6.57163 23.5271 6.57163ZM30.4126 21.1205L38.2921 16.5675C38.2847 16.5384 38.2776 16.5093 38.2709 16.4801C38.2495 16.3878 38.2311 16.295 38.2158 16.2021C38.2102 16.1681 38.205 16.134 38.2002 16.0999C38.1826 15.975 38.1703 15.85 38.1634 15.725C38.1633 15.7214 38.1631 15.7179 38.1629 15.7144L38.1634 15.725C38.1623 15.704 38.1613 15.6831 38.1604 15.6622C38.1599 15.6491 38.1594 15.6359 38.159 15.6228C38.1551 15.5007 38.1562 15.3789 38.1623 15.2574C38.1628 15.2474 38.1633 15.2375 38.1639 15.2276C38.1646 15.2146 38.1654 15.2016 38.1662 15.1886C38.167 15.1773 38.1678 15.166 38.1686 15.1547C38.1748 15.0703 38.1833 14.9861 38.1943 14.9023C38.197 14.8813 38.1999 14.8604 38.2029 14.8395C38.2054 14.8223 38.208 14.8051 38.2107 14.7879C38.22 14.729 38.2304 14.6704 38.2419 14.6121C38.244 14.6014 38.2462 14.5907 38.2484 14.58C38.251 14.5673 38.2537 14.5547 38.2564 14.542C38.2593 14.5283 38.2623 14.5146 38.2654 14.5009C38.2678 14.4901 38.2703 14.4793 38.2728 14.4685C38.2761 14.4541 38.2795 14.4398 38.283 14.4255C38.2854 14.4157 38.2878 14.4058 38.2903 14.396C38.3078 14.326 38.327 14.2563 38.3479 14.1872C38.35 14.1803 38.352 14.1734 38.3541 14.1666C38.3593 14.1498 38.3646 14.133 38.3699 14.1162C38.3733 14.1057 38.3768 14.0951 38.3802 14.0845C38.3843 14.0721 38.3884 14.0597 38.3926 14.0473C38.3954 14.0391 38.3982 14.031 38.4009 14.0229C38.4069 14.0056 38.4129 13.9884 38.4191 13.9712C38.4214 13.9649 38.4237 13.9584 38.426 13.952C38.4318 13.9361 38.4377 13.9202 38.4437 13.9044C38.4472 13.8949 38.4509 13.8853 38.4545 13.8758C38.4589 13.8643 38.4633 13.853 38.4678 13.8416C38.4828 13.8037 38.4982 13.7659 38.5142 13.7284C38.5223 13.7093 38.5305 13.6903 38.5389 13.6713C38.5405 13.6677 38.5422 13.664 38.5438 13.6604C38.5514 13.6432 38.5592 13.6261 38.5671 13.609C38.5708 13.6009 38.5745 13.5929 38.5783 13.5849C38.587 13.5661 38.5959 13.5474 38.6049 13.5288C38.606 13.5266 38.607 13.5245 38.6081 13.5224C38.6166 13.5049 38.6252 13.4875 38.6339 13.4701C38.6387 13.4607 38.6434 13.4514 38.6482 13.4421C38.6629 13.4133 38.678 13.3846 38.6934 13.3561C38.7127 13.3203 38.7324 13.2849 38.7527 13.2497L27.3799 6.67797L27.3565 6.71799C27.3549 6.72061 27.3533 6.72323 27.3518 6.72584C27.3319 6.75934 27.3116 6.79246 27.2909 6.8253C27.2846 6.83522 27.2783 6.84511 27.272 6.85497C27.2662 6.86393 27.2604 6.87292 27.2545 6.88189C27.2479 6.89216 27.2411 6.90238 27.2344 6.91258C27.2294 6.92005 27.2244 6.92749 27.2194 6.93491C27.1258 7.07414 27.0244 7.20782 26.916 7.3353C26.9087 7.34386 26.9015 7.35233 26.8942 7.36076C26.887 7.36916 26.8797 7.37755 26.8723 7.38592C26.8643 7.39509 26.8562 7.40425 26.8481 7.41338C26.8403 7.42205 26.8326 7.43068 26.8248 7.43927C26.8175 7.4474 26.8101 7.45549 26.8027 7.46356C26.7781 7.4903 26.7532 7.51674 26.728 7.54287C26.7031 7.56872 26.6779 7.59428 26.6523 7.61954C26.5695 7.70135 26.4835 7.77995 26.3945 7.85513C26.3833 7.86459 26.3721 7.87402 26.3607 7.8834C26.3543 7.88877 26.3478 7.89409 26.3413 7.89938C26.3307 7.90807 26.32 7.91674 26.3093 7.92536C26.3005 7.93242 26.2917 7.93944 26.2829 7.94643C26.2746 7.95295 26.2664 7.95944 26.2581 7.96591C26.2474 7.97419 26.2367 7.98245 26.226 7.99067C26.2176 7.9971 26.2092 8.00347 26.2008 8.00982C26.1896 8.01824 26.1784 8.02662 26.1671 8.03495C26.1603 8.04002 26.1533 8.0451 26.1464 8.05016C26.1322 8.06058 26.1179 8.07088 26.1035 8.08109C26.0987 8.08453 26.0939 8.08797 26.089 8.0914C26.0362 8.12868 25.9826 8.16483 25.9282 8.19982C25.8959 8.22059 25.8634 8.24087 25.8307 8.26075C25.796 8.28184 25.761 8.30244 25.7257 8.32256C25.7146 8.32886 25.7035 8.33515 25.6923 8.34139C25.683 8.34656 25.6739 8.35164 25.6647 8.35669C25.656 8.36145 25.6472 8.36625 25.6384 8.37102C25.6251 8.37821 25.6119 8.38527 25.5986 8.39228C25.5872 8.3983 25.5757 8.40428 25.5643 8.41021C25.5583 8.4133 25.5523 8.41639 25.5462 8.41948C25.5314 8.42703 25.5167 8.43447 25.5018 8.44183C25.4907 8.44734 25.4796 8.45283 25.4684 8.45827C25.4614 8.46167 25.4544 8.46504 25.4474 8.46839C25.431 8.47628 25.4145 8.48408 25.3979 8.49178C25.3922 8.49441 25.3866 8.49703 25.3809 8.49964C25.3672 8.50594 25.3534 8.51218 25.3396 8.51834C25.3084 8.53231 25.277 8.5459 25.2455 8.55913C25.2098 8.57411 25.1739 8.58863 25.1377 8.60268C25.1177 8.61048 25.0976 8.61812 25.0775 8.62562C25.0198 8.64708 24.9616 8.66736 24.9029 8.68645C24.896 8.68871 24.889 8.69096 24.882 8.69319C24.8678 8.69774 24.8536 8.70221 24.8393 8.70662C24.8296 8.7096 24.8199 8.71256 24.8102 8.71548C24.7947 8.72016 24.7791 8.72474 24.7635 8.72925C24.7565 8.73127 24.7495 8.73328 24.7425 8.73528C24.7357 8.73721 24.7288 8.73913 24.722 8.74102L24.7221 17.3143C27.1556 17.6154 29.2455 19.0666 30.4126 21.1205ZM17.0468 21.3013C18.1356 19.2549 20.1044 17.8052 22.3922 17.383L22.3922 8.75728C22.3879 8.75615 22.3836 8.755 22.3793 8.75385C22.3746 8.75259 22.3698 8.75131 22.365 8.75001C22.3458 8.74483 22.3267 8.73954 22.3077 8.73412C22.3015 8.73235 22.2952 8.73055 22.2889 8.72873C22.2719 8.72381 22.255 8.71881 22.2382 8.71371C22.2308 8.71149 22.2234 8.70923 22.2161 8.70695C22.1993 8.7018 22.1827 8.69656 22.1661 8.69123C22.1587 8.68884 22.1513 8.68644 22.1439 8.68403C22.1317 8.68003 22.1194 8.67596 22.1071 8.67183C22.0943 8.66748 22.0815 8.6631 22.0687 8.65867C22.054 8.65358 22.0395 8.64845 22.025 8.64324C22.0197 8.64134 22.0143 8.6394 22.009 8.63745C21.9948 8.6323 21.9807 8.62711 21.9667 8.62185C21.9548 8.6174 21.943 8.61289 21.9311 8.60833C21.9186 8.60352 21.9061 8.59862 21.8935 8.59367C21.8855 8.5905 21.8775 8.5873 21.8695 8.58408C21.8578 8.57936 21.8461 8.57462 21.8345 8.56983C21.7923 8.55243 21.7504 8.53441 21.7089 8.51576C21.6515 8.49 21.5947 8.46305 21.5386 8.43495C21.5261 8.42867 21.5135 8.42231 21.501 8.41589C21.4937 8.41214 21.4864 8.40836 21.4791 8.40457C21.4692 8.3994 21.4593 8.39421 21.4494 8.38899C21.4348 8.38123 21.4201 8.37336 21.4055 8.36542C21.4005 8.36267 21.3955 8.35995 21.3905 8.35722C21.3763 8.34941 21.3621 8.34149 21.3479 8.33349C21.3395 8.32874 21.3311 8.32397 21.3227 8.31918C21.3093 8.31153 21.2959 8.30377 21.2825 8.29594C21.2758 8.29197 21.2691 8.28803 21.2624 8.28408C21.2471 8.27498 21.2317 8.26575 21.2164 8.25642C21.2122 8.25384 21.2081 8.25131 21.204 8.24878C21.1923 8.2416 21.1805 8.2343 21.1688 8.22696C21.155 8.21829 21.1413 8.2096 21.1277 8.20084C21.0953 8.18009 21.0633 8.1589 21.0315 8.13731C21.0268 8.13409 21.022 8.13083 21.0172 8.12756C21.0069 8.1205 20.9967 8.11342 20.9865 8.1063C20.9288 8.06605 20.8721 8.02446 20.8164 7.98158C20.7677 7.94406 20.7199 7.90561 20.6729 7.86621C20.6685 7.86255 20.6642 7.85892 20.6599 7.85528C20.4392 7.66884 20.2368 7.46123 20.0559 7.23561C20.0488 7.22666 20.0417 7.21771 20.0346 7.20872C20.0273 7.19956 20.0201 7.19035 20.0129 7.1811C20.0051 7.17104 19.9974 7.16094 19.9896 7.15081C19.9829 7.14199 19.9762 7.13317 19.9695 7.12432C19.9638 7.11666 19.9581 7.10897 19.9524 7.10126C19.9419 7.08717 19.9315 7.07304 19.9213 7.05885C19.9179 7.05412 19.9145 7.04933 19.911 7.04453C19.8263 6.92649 19.7473 6.80417 19.6744 6.67793L8.30151 13.2496C8.32179 13.2848 8.34157 13.3203 8.36086 13.356C8.36606 13.3657 8.37122 13.3753 8.37634 13.385C8.38066 13.3931 8.38494 13.4013 8.38919 13.4094C8.40832 13.446 8.42692 13.4829 8.44499 13.5199C8.44737 13.5248 8.44975 13.5297 8.45212 13.5346C8.47223 13.5763 8.49167 13.6182 8.51045 13.6603C8.51453 13.6695 8.51853 13.6786 8.52251 13.6877C8.53953 13.7266 8.556 13.7658 8.5719 13.8052L8.57375 13.8098C8.57875 13.8222 8.5837 13.8346 8.58859 13.8471C8.59233 13.8566 8.59602 13.8662 8.59969 13.8757C8.61362 13.912 8.62708 13.9484 8.64005 13.985C8.64255 13.9921 8.64507 13.9992 8.64757 14.0064C8.65232 14.02 8.65697 14.0335 8.66155 14.0471C8.67486 14.0864 8.68762 14.126 8.69983 14.1657C8.70205 14.1729 8.70423 14.1801 8.7064 14.1872C8.71696 14.2222 8.7271 14.2574 8.73682 14.2927C8.74898 14.3368 8.76045 14.3811 8.77123 14.4255C8.78053 14.4638 8.78933 14.5023 8.79762 14.5408C8.79927 14.5485 8.80089 14.5561 8.80249 14.5638C8.81633 14.6298 8.8287 14.6963 8.83955 14.763C8.84709 14.8094 8.85389 14.8558 8.85996 14.9023C8.87091 14.9861 8.87948 15.0703 8.88566 15.1547C8.88649 15.1661 8.88728 15.1775 8.88803 15.1889C8.88887 15.2018 8.88966 15.2147 8.89039 15.2276C8.89096 15.2376 8.89149 15.2475 8.89199 15.2574C8.89408 15.2993 8.89558 15.3412 8.8965 15.3831C8.89746 15.4275 8.89777 15.472 8.8974 15.5165C8.89731 15.5272 8.89719 15.5379 8.89702 15.5486C8.89686 15.5593 8.89665 15.5699 8.89641 15.5805C8.8961 15.5946 8.89571 15.6087 8.89526 15.6228C8.89484 15.6358 8.89437 15.6488 8.89383 15.6618C8.89336 15.6735 8.89283 15.6851 8.89226 15.6968C8.89146 15.7132 8.89058 15.7295 8.88959 15.7459C8.88898 15.7562 8.88832 15.7666 8.88763 15.7769C8.88729 15.782 8.88694 15.7871 8.88658 15.7921L8.88458 15.8194C8.87562 15.9363 8.86202 16.0531 8.84368 16.1696C8.84103 16.1865 8.83828 16.2033 8.83543 16.2202C8.83364 16.2307 8.83181 16.2413 8.82994 16.2518C8.82852 16.2599 8.82709 16.2679 8.82563 16.2758C8.82177 16.297 8.81773 16.3183 8.81353 16.3395C8.8134 16.3402 8.81327 16.3409 8.81314 16.3415L8.81353 16.3395C8.80155 16.4001 8.78828 16.4606 8.77369 16.521L17.0468 21.3013ZM43.6645 17.3117C44.6776 16.7264 45.0247 15.4299 44.4398 14.4159C43.8549 13.402 42.5595 13.0546 41.5464 13.64C40.7484 14.1011 40.3636 15.0034 40.5221 15.8613C40.5236 15.8704 40.5254 15.8793 40.5271 15.8883L40.5221 15.8613C40.5253 15.879 40.5288 15.8967 40.5326 15.9143L40.5271 15.8883C40.5312 15.9085 40.5355 15.9287 40.5401 15.9488L40.5326 15.9143C40.5364 15.9324 40.5404 15.9504 40.5447 15.9684L40.5401 15.9488C40.5443 15.9671 40.5487 15.9853 40.5534 16.0035L40.5447 15.9684C40.5494 15.9879 40.5544 16.0075 40.5596 16.0269L40.5534 16.0035C40.5583 16.0226 40.5636 16.0418 40.5691 16.0609L40.5596 16.0269C40.5644 16.0446 40.5694 16.0623 40.5747 16.08L40.5691 16.0609C40.5865 16.1215 40.6068 16.1816 40.6298 16.241C40.6339 16.2517 40.6381 16.2622 40.6424 16.2728L40.6298 16.241C40.6378 16.2616 40.6462 16.2822 40.6548 16.3026L40.6424 16.2728C40.6485 16.2877 40.6547 16.3025 40.6611 16.3173L40.6548 16.3026C40.6633 16.3225 40.6721 16.3424 40.6812 16.3621L40.6611 16.3173C40.6697 16.3371 40.6786 16.3567 40.6878 16.3762L40.6812 16.3621C40.6897 16.3805 40.6984 16.3988 40.7075 16.417L40.6878 16.3762C40.6958 16.3934 40.7042 16.4106 40.7128 16.4276L40.7075 16.417C40.7273 16.4571 40.7485 16.4967 40.7711 16.5358C40.8 16.5859 40.8307 16.6344 40.863 16.6813C40.8698 16.6911 40.8766 16.7009 40.8835 16.7106L40.863 16.6813C40.8735 16.6966 40.8842 16.7117 40.8951 16.7266L40.8835 16.7106C40.8953 16.7271 40.9074 16.7435 40.9196 16.7596L40.8951 16.7266C40.9054 16.7408 40.9159 16.7548 40.9265 16.7686L40.9196 16.7596C40.9292 16.7723 40.939 16.7849 40.9489 16.7973L40.9265 16.7686C40.9397 16.7858 40.9531 16.8028 40.9668 16.8196L40.9489 16.7973C40.9601 16.8114 40.9714 16.8253 40.9829 16.8391L40.9668 16.8196C40.98 16.8358 40.9935 16.8517 41.0071 16.8675L40.9829 16.8391C40.9945 16.8529 41.0062 16.8665 41.018 16.88L41.0071 16.8675C41.0206 16.883 41.0342 16.8982 41.048 16.9133L41.018 16.88C41.0308 16.8945 41.0437 16.9087 41.0568 16.9228L41.048 16.9133C41.0715 16.9388 41.0956 16.9638 41.1202 16.988C41.782 17.6399 42.8211 17.7991 43.6645 17.3117ZM5.79883 17.1101L5.83646 17.0784C5.84074 17.0746 5.84501 17.0709 5.84926 17.0671L5.83638 17.0783C5.8581 17.0594 5.87948 17.0401 5.9005 17.0203C5.92046 17.0016 5.94012 16.9823 5.95942 16.9626C5.97931 16.9423 5.99891 16.9215 6.01813 16.9002C6.023 16.8948 6.02783 16.8894 6.03263 16.884L6.01813 16.9002C6.02974 16.8874 6.04121 16.8744 6.05253 16.8612L6.03263 16.884C6.05946 16.8537 6.0855 16.8226 6.11071 16.7905C6.11485 16.7853 6.119 16.78 6.12312 16.7747L6.11071 16.7905C6.12065 16.7779 6.13045 16.7652 6.14012 16.7523L6.12312 16.7747C6.13503 16.7593 6.14676 16.7436 6.1583 16.7278L6.14012 16.7523C6.19165 16.6838 6.23945 16.6115 6.28313 16.5358C6.30239 16.5024 6.32067 16.4687 6.33797 16.4346C6.34266 16.4254 6.34726 16.4161 6.35177 16.4069L6.33797 16.4346C6.34742 16.416 6.35658 16.3972 6.36545 16.3784L6.35177 16.4069C6.361 16.3881 6.36991 16.3692 6.37853 16.3502L6.36545 16.3784C6.37367 16.361 6.38164 16.3435 6.38935 16.3259L6.37853 16.3502C6.38587 16.334 6.39299 16.3178 6.39989 16.3015L6.38935 16.3259C6.39876 16.3044 6.40779 16.2829 6.41645 16.2612L6.39989 16.3015C6.40745 16.2837 6.41475 16.2658 6.42179 16.2478L6.41645 16.2612C6.42239 16.2464 6.42815 16.2315 6.43374 16.2166L6.42179 16.2478C6.42949 16.2282 6.43687 16.2085 6.44394 16.1887L6.46246 16.1347C6.46842 16.1165 6.47413 16.0983 6.47958 16.08C6.48148 16.0736 6.48335 16.0672 6.48519 16.0608L6.47958 16.08C6.48483 16.0624 6.48985 16.0447 6.49463 16.027L6.48519 16.0608C6.49068 16.0417 6.4959 16.0225 6.50084 16.0033L6.49463 16.027C6.49989 16.0076 6.50486 15.988 6.50954 15.9685L6.50084 16.0033C6.50552 15.9852 6.50994 15.9669 6.51412 15.9487L6.50954 15.9685C6.51385 15.9505 6.51792 15.9325 6.52175 15.9144L6.51412 15.9487C6.51872 15.9286 6.52303 15.9084 6.52703 15.8882L6.52175 15.9144C6.52549 15.8967 6.52901 15.8791 6.53229 15.8614L6.52703 15.8882C6.69863 15.0224 6.31419 14.1059 5.50785 13.64C4.49478 13.0546 3.19937 13.402 2.61447 14.4159C2.02958 15.4299 2.37668 16.7264 3.38975 17.3117C4.17769 17.767 5.13644 17.6581 5.79883 17.1101ZM7.54993 34.3312L12.5959 31.4156C11.7379 30.3584 11.2238 29.0105 11.2238 27.5424C11.2238 25.333 12.3883 23.3959 14.1365 22.3122L7.6524 18.5657C7.55236 18.6698 7.44788 18.7682 7.33945 18.861C7.27437 18.9167 7.20788 18.9702 7.14007 19.0217C7.11927 19.0375 7.09833 19.0532 7.07727 19.0686C7.00898 19.1186 6.93931 19.1666 6.86847 19.2124L6.86627 19.2138C6.8533 19.2222 6.8403 19.2305 6.82725 19.2388C6.76658 19.2771 6.70503 19.314 6.64271 19.3492C6.6191 19.3626 6.59528 19.3758 6.57136 19.3888C6.53973 19.4059 6.50797 19.4226 6.47603 19.439L6.47319 19.4404C6.40713 19.4741 6.3403 19.5062 6.27277 19.5365C6.204 19.5673 6.13453 19.5964 6.0644 19.6238L6.06089 19.6251C6.05459 19.6276 6.04829 19.63 6.04198 19.6324C6.01251 19.6437 5.98298 19.6547 5.95334 19.6653C5.92771 19.6745 5.90197 19.6835 5.87615 19.6922C5.8442 19.7031 5.81217 19.7135 5.78003 19.7236C5.7742 19.7254 5.76842 19.7272 5.76264 19.729C5.72103 19.7419 5.67918 19.7541 5.63717 19.7658L5.63298 19.767C5.61982 19.7706 5.60664 19.7742 5.59345 19.7777C5.55893 19.7869 5.52432 19.7957 5.4896 19.804C5.40273 19.825 5.3152 19.8433 5.22715 19.859C5.1679 19.8696 5.10841 19.879 5.04872 19.8872C5.0393 19.8884 5.02999 19.8897 5.02067 19.8909C4.98059 19.8961 4.9404 19.9008 4.90014 19.905L4.89485 19.9055C4.89078 19.9059 4.8867 19.9063 4.88263 19.9067C4.83715 19.9112 4.79159 19.915 4.74595 19.9181C4.7046 19.9209 4.66322 19.9232 4.62179 19.9248C4.6128 19.9252 4.60386 19.9255 4.59492 19.9258C4.59292 19.9259 4.59079 19.926 4.58867 19.926C4.54202 19.9275 4.49543 19.9283 4.44879 19.9284L4.4588 19.9283L4.44975 19.9284L4.44879 19.9284L4.44879 33.0716C4.4959 33.0717 4.54296 33.0725 4.58996 33.074C4.65328 33.0761 4.71645 33.0795 4.77947 33.0843C4.92286 33.0951 5.06546 33.1129 5.20677 33.1374C5.35541 33.1632 5.5027 33.1965 5.64796 33.2372C5.68739 33.2483 5.72662 33.2598 5.7657 33.2719C5.82058 33.289 5.8752 33.307 5.92947 33.3262C5.97466 33.3421 6.01966 33.3588 6.0644 33.3763C6.21385 33.4345 6.3598 33.5005 6.50208 33.5745C6.62492 33.6383 6.74512 33.708 6.86213 33.7835C6.87108 33.7893 6.88001 33.7951 6.88893 33.8009C6.96055 33.8479 7.03095 33.897 7.10002 33.9482C7.11908 33.9623 7.1381 33.9767 7.15701 33.9912C7.21367 34.0347 7.26934 34.0795 7.324 34.1259C7.37785 34.1715 7.43075 34.2186 7.48262 34.267C7.50524 34.2881 7.52769 34.3095 7.54993 34.3312ZM39.5853 34.2543L39.6237 34.2192C39.6674 34.1796 39.7118 34.141 39.7569 34.1034L39.7585 34.1022C39.8072 34.0615 39.8567 34.0221 39.907 33.9837C39.9537 33.9481 40.0011 33.9135 40.049 33.8798C40.0962 33.8467 40.1439 33.8146 40.1922 33.7834C40.2127 33.7702 40.2333 33.7572 40.2541 33.7442C40.3235 33.7011 40.3941 33.6598 40.4657 33.6206C40.4888 33.6079 40.5121 33.5955 40.5354 33.5832C40.5854 33.557 40.6358 33.5317 40.6867 33.5074C40.7419 33.4811 40.7976 33.4559 40.8537 33.4319C40.9557 33.3882 41.0593 33.3484 41.1642 33.3125C41.225 33.2917 41.2863 33.2722 41.3479 33.254C41.3566 33.2514 41.3655 33.2489 41.3743 33.2463C41.3891 33.242 41.4039 33.2379 41.4186 33.2338C41.4234 33.2325 41.4283 33.2311 41.4333 33.2297C41.4585 33.2229 41.4836 33.2162 41.5088 33.2098C41.633 33.1782 41.7586 33.1519 41.8853 33.131C41.9257 33.1243 41.9663 33.1182 42.0069 33.1127C42.0149 33.1116 42.0228 33.1105 42.0308 33.1095C42.0733 33.1039 42.116 33.0989 42.1588 33.0946C42.1606 33.0944 42.1626 33.0942 42.1645 33.094C42.2127 33.0891 42.2608 33.0851 42.3091 33.0818C42.3505 33.079 42.3919 33.0768 42.4335 33.0751C42.4418 33.0748 42.4503 33.0745 42.4587 33.0742C42.4616 33.0741 42.4644 33.074 42.4672 33.0739C42.5131 33.0725 42.5592 33.0717 42.6054 33.0716L42.5957 33.0718L42.6045 33.0716L42.6054 33.0716L42.6054 19.9284C42.5583 19.9283 42.5112 19.9275 42.4642 19.926C42.4029 19.924 42.3416 19.9207 42.2805 19.9162C42.1545 19.9068 42.029 19.8921 41.9045 19.8721C41.7764 19.8516 41.6493 19.8255 41.5235 19.7939C41.4165 19.7671 41.3104 19.7362 41.2056 19.7014C41.0425 19.6474 40.8825 19.584 40.7264 19.5113C40.638 19.4701 40.5507 19.426 40.4648 19.3789C40.4591 19.3758 40.4535 19.3727 40.4478 19.3696L40.4648 19.3789C40.418 19.3532 40.3715 19.3267 40.3255 19.2992C40.3 19.284 40.2746 19.2686 40.2493 19.2528L40.1857 19.2124C40.1645 19.1987 40.1434 19.1847 40.1224 19.1706C40.0961 19.1529 40.0701 19.1351 40.0444 19.1169C39.9874 19.0768 39.9312 19.0353 39.876 18.9924C39.8453 18.9685 39.8151 18.9445 39.7852 18.92C39.6635 18.8202 39.5466 18.7134 39.435 18.5998L31.4082 23.2379C33.9638 23.5592 35.9469 25.7219 35.9896 28.3566L35.9903 28.4434C35.9903 29.6404 35.5897 30.7438 34.9155 31.6267L39.5387 34.298C39.5542 34.2833 39.5697 34.2687 39.5853 34.2543ZM23.2531 31.3582H30.748C32.3565 31.3582 33.6604 30.0532 33.6604 28.4434C33.6604 26.8335 32.3565 25.5285 30.7479 25.5285L29.1434 25.5285L29.0572 24.456C28.8371 21.7167 26.5433 19.5883 23.7792 19.5883C21.5712 19.5883 19.6187 20.9532 18.837 22.9805L18.5492 23.7266L17.3662 23.7266C15.2606 23.7266 13.5537 25.435 13.5537 27.5424C13.5537 29.6498 15.2606 31.3582 17.3662 31.3582H23.0607C23.0866 31.3582 23.1119 31.3579 23.1366 31.3574L23.1617 31.3569L23.2199 31.358L23.2531 31.3582ZM19.6744 46.3219L19.6978 46.282C19.7105 46.2605 19.7234 46.2391 19.7365 46.2178C19.7567 46.185 19.7773 46.1524 19.7984 46.1202C19.8054 46.1094 19.8124 46.0987 19.8194 46.0881C19.8256 46.0788 19.8318 46.0695 19.8381 46.0602C19.8575 46.0314 19.8772 46.0029 19.8973 45.9747C19.9502 45.9001 20.0053 45.8272 20.0625 45.7561C20.0861 45.7269 20.11 45.698 20.1343 45.6694C20.1425 45.6597 20.1507 45.6501 20.1589 45.6405C20.1821 45.6136 20.2056 45.5871 20.2294 45.5607C20.2368 45.5525 20.2442 45.5444 20.2516 45.5364C20.2783 45.5074 20.3053 45.4787 20.3328 45.4504C20.3556 45.4268 20.3787 45.4035 20.402 45.3804C20.4865 45.2969 20.5743 45.2168 20.6651 45.1403C20.6717 45.1348 20.6783 45.1293 20.6849 45.1238C20.6942 45.116 20.7036 45.1083 20.7129 45.1006C20.7435 45.0756 20.7744 45.051 20.8056 45.0268C20.8118 45.022 20.818 45.0172 20.8242 45.0125C20.834 45.0049 20.8437 44.9975 20.8535 44.9901C20.8646 44.9818 20.8759 44.9734 20.8871 44.9651C20.894 44.9599 20.901 44.9549 20.9079 44.9498C20.9221 44.9394 20.9364 44.9291 20.9507 44.9189C20.9556 44.9154 20.9604 44.912 20.9653 44.9086C20.9995 44.8844 21.034 44.8607 21.069 44.8375C21.1198 44.8037 21.1713 44.771 21.2236 44.7392C21.2583 44.7182 21.2933 44.6976 21.3286 44.6774C21.3392 44.6714 21.3499 44.6654 21.3606 44.6594C21.3703 44.654 21.3799 44.6486 21.3896 44.6433C21.3983 44.6385 21.4071 44.6337 21.4159 44.629C21.4297 44.6215 21.4436 44.6141 21.4575 44.6068C21.4653 44.6026 21.4733 44.5985 21.4812 44.5943C21.4924 44.5886 21.5035 44.5828 21.5147 44.5771C21.5286 44.5701 21.5425 44.5631 21.5565 44.5561C21.5604 44.5542 21.5643 44.5523 21.5682 44.5504C21.5841 44.5425 21.6002 44.5348 21.6162 44.5271C21.6461 44.5129 21.6762 44.4989 21.7064 44.4853C21.7403 44.4701 21.7744 44.4553 21.8088 44.4409C21.8472 44.4248 21.8858 44.4092 21.9247 44.3941C21.942 44.3874 21.9594 44.3809 21.9768 44.3744C22.0097 44.3621 22.0427 44.3503 22.0759 44.3388C22.0867 44.3351 22.0975 44.3314 22.1083 44.3278C22.1222 44.3231 22.1361 44.3185 22.1501 44.314C22.1575 44.3115 22.1649 44.3092 22.1722 44.3068C22.1864 44.3023 22.2007 44.2978 22.215 44.2934C22.2247 44.2904 22.2344 44.2874 22.2441 44.2845C22.2596 44.2799 22.2751 44.2753 22.2907 44.2708C22.2977 44.2687 22.3048 44.2667 22.3118 44.2647C22.3285 44.26 22.3452 44.2554 22.3619 44.2508C22.3704 44.2485 22.3787 44.2463 22.3871 44.2441C22.3887 44.2436 22.3905 44.2432 22.3922 44.2427L22.3924 33.6901L17.3662 33.6901C16.3409 33.6901 15.3742 33.4386 14.5244 32.994L8.73713 36.338C8.76661 36.4444 8.79195 36.5515 8.81322 36.6589C8.81354 36.6605 8.81387 36.6622 8.81419 36.6638C8.81816 36.684 8.82197 36.7041 8.82564 36.7242C8.82857 36.7402 8.83141 36.7563 8.83416 36.7724C8.83459 36.7749 8.83501 36.7774 8.83543 36.7799L8.83416 36.7724C8.84282 36.823 8.85058 36.8737 8.85745 36.9245C8.869 37.0098 8.87803 37.0952 8.88458 37.1806L8.88658 37.2079C8.88709 37.2151 8.88759 37.2224 8.88806 37.2297C8.88905 37.2448 8.88997 37.2599 8.8908 37.275C8.89136 37.2852 8.89189 37.2954 8.89238 37.3055C8.89303 37.3191 8.89363 37.3327 8.89416 37.3463C8.89459 37.3574 8.89498 37.3684 8.89533 37.3794C8.89588 37.3967 8.89632 37.4141 8.89667 37.4314C8.89691 37.4436 8.89711 37.4559 8.89725 37.4682C8.89736 37.4778 8.89744 37.4873 8.89749 37.4968L8.89725 37.4682C8.89791 37.5254 8.89748 37.5825 8.89595 37.6395C8.89499 37.6752 8.89359 37.711 8.89177 37.7468C8.89122 37.7577 8.89063 37.7685 8.88999 37.7793C8.88938 37.7899 8.88872 37.8005 8.88803 37.8111C8.88716 37.8243 8.88624 37.8375 8.88526 37.8507C8.87788 37.9499 8.86718 38.0489 8.85321 38.1473C8.84832 38.1817 8.84306 38.2159 8.8374 38.2501C8.82701 38.3128 8.81529 38.3752 8.80225 38.4374C8.80074 38.4446 8.79919 38.4519 8.79763 38.4591C8.78518 38.5171 8.77159 38.5747 8.75687 38.632C8.74307 38.6857 8.72825 38.7393 8.71244 38.7926C8.7099 38.8011 8.70735 38.8096 8.70477 38.8181C8.70285 38.8245 8.70089 38.8309 8.69892 38.8373C8.68677 38.8767 8.6741 38.9159 8.66089 38.9549C8.6565 38.9678 8.65205 38.9808 8.64754 38.9937C8.64499 39.001 8.64245 39.0082 8.63989 39.0154C8.62512 39.0571 8.60969 39.0986 8.59364 39.1399C8.59198 39.1442 8.59029 39.1486 8.5886 39.1529L8.59364 39.1399C8.58209 39.1697 8.57021 39.1993 8.55802 39.2288C8.54473 39.261 8.53104 39.293 8.51697 39.3249C8.51335 39.3332 8.50966 39.3414 8.50595 39.3497C8.48856 39.3885 8.47062 39.4271 8.45213 39.4653C8.44921 39.4714 8.44628 39.4774 8.44334 39.4835C8.42401 39.523 8.40407 39.5623 8.38354 39.6014C8.37906 39.6099 8.37455 39.6184 8.37001 39.6269C8.3642 39.6378 8.35832 39.6487 8.35239 39.6596C8.3358 39.69 8.31884 39.7203 8.30151 39.7504L19.6744 46.3219ZM27.3799 46.3221L38.7527 39.7504C38.7354 39.7203 38.7184 39.69 38.7019 39.6596C38.6959 39.6487 38.69 39.6378 38.6842 39.6269C38.6797 39.6184 38.6752 39.6099 38.6707 39.6014C38.6502 39.5623 38.6302 39.523 38.6109 39.4834C38.6076 39.4766 38.6042 39.4698 38.6009 39.4629C38.5947 39.4499 38.5885 39.4369 38.5823 39.4239C38.5778 39.4142 38.5732 39.4044 38.5687 39.3946C38.5628 39.3819 38.5571 39.3692 38.5513 39.3565C38.5211 39.2893 38.4925 39.2214 38.4657 39.1529C38.464 39.1486 38.4623 39.1442 38.4606 39.1399L38.4657 39.1529C38.4594 39.1368 38.4532 39.1207 38.4471 39.1046C38.4405 39.0874 38.4341 39.0702 38.4278 39.0529C38.4252 39.0457 38.4226 39.0386 38.4201 39.0315C38.4156 39.019 38.4111 39.0064 38.4067 38.9938C38.4022 38.9808 38.3977 38.9678 38.3934 38.9549C38.3914 38.9491 38.3894 38.9433 38.3875 38.9374C38.3815 38.9194 38.3755 38.9012 38.3697 38.8829C38.3667 38.8738 38.3638 38.8646 38.361 38.8554C38.3571 38.843 38.3532 38.8305 38.3495 38.8181C38.3212 38.7248 38.2959 38.6306 38.2738 38.5356C38.2708 38.5228 38.2678 38.5099 38.2649 38.497C38.2634 38.49 38.2618 38.483 38.2603 38.476C38.2575 38.4631 38.2547 38.4502 38.252 38.4373C38.2489 38.4226 38.2459 38.4079 38.243 38.3932C38.241 38.3832 38.239 38.3732 38.2371 38.3632C38.2357 38.356 38.2343 38.3488 38.233 38.3417C38.2292 38.3214 38.2256 38.3011 38.222 38.2807C38.2168 38.2506 38.2119 38.2204 38.2073 38.1901C38.2052 38.1759 38.2031 38.1617 38.2011 38.1474L38.2073 38.1901C38.1902 38.0776 38.1774 37.9643 38.169 37.8506C38.168 37.8375 38.1671 37.8243 38.1662 37.8111C38.1655 37.8005 38.1649 37.7899 38.1643 37.7793C38.1636 37.7685 38.163 37.7577 38.1625 37.7468C38.1563 37.6247 38.155 37.5021 38.1589 37.3794C38.1593 37.3684 38.1597 37.3574 38.1601 37.3464C38.1606 37.3327 38.1612 37.3191 38.1619 37.3055C38.1623 37.2969 38.1627 37.2883 38.1632 37.2796C38.17 37.1534 38.1823 37.0271 38.2 36.9011C38.2049 36.8667 38.2101 36.8323 38.2158 36.7979C38.2232 36.7532 38.2313 36.7085 38.24 36.6639C38.2404 36.6622 38.2407 36.6605 38.241 36.6589C38.2442 36.6429 38.2475 36.6268 38.2508 36.6108C38.2709 36.5148 38.2943 36.4191 38.3211 36.3239C38.3235 36.3152 38.3259 36.3065 38.3284 36.2979L38.3211 36.3239C38.324 36.3133 38.327 36.3028 38.33 36.2923L32.9715 33.1961C32.2965 33.513 31.5429 33.6901 30.748 33.6901L24.7222 33.6901L24.7221 44.259C24.7303 44.2613 24.7385 44.2636 24.7467 44.2659C24.7529 44.2677 24.7591 44.2695 24.7653 44.2713C24.7823 44.2762 24.7992 44.2812 24.8161 44.2863C24.8234 44.2885 24.8308 44.2908 24.8382 44.2931C24.8544 44.298 24.8705 44.3031 24.8866 44.3083C24.8977 44.3119 24.9089 44.3155 24.92 44.3191C24.9288 44.322 24.9376 44.325 24.9464 44.3279C24.9589 44.3321 24.9713 44.3364 24.9838 44.3407C24.9994 44.3461 25.0151 44.3517 25.0307 44.3573C25.0355 44.359 25.0404 44.3608 25.0453 44.3626C25.0587 44.3674 25.0719 44.3723 25.0851 44.3772C25.1169 44.3891 25.1486 44.4014 25.1801 44.4141L25.1944 44.4198C25.2029 44.4232 25.2113 44.4267 25.2198 44.4302C25.2555 44.4449 25.291 44.4601 25.3263 44.4757C25.3675 44.494 25.4084 44.5129 25.449 44.5324C25.458 44.5367 25.467 44.5411 25.476 44.5454C25.5095 44.5618 25.5428 44.5786 25.5759 44.5958C25.5885 44.6024 25.6011 44.609 25.6137 44.6157C25.6237 44.6211 25.6336 44.6264 25.6435 44.6318C25.6536 44.6372 25.6637 44.6428 25.6738 44.6483C25.6842 44.6541 25.6945 44.6598 25.7048 44.6656C25.7163 44.6721 25.7278 44.6786 25.7392 44.6852C25.7476 44.69 25.756 44.6949 25.7644 44.6998C25.7746 44.7057 25.7848 44.7118 25.795 44.7178C25.8078 44.7254 25.8205 44.7331 25.8333 44.7408C25.8418 44.746 25.8503 44.7512 25.8588 44.7565C25.8672 44.7617 25.8756 44.7669 25.884 44.7721C25.8967 44.7801 25.9093 44.7881 25.9219 44.7962C25.9558 44.8178 25.9894 44.8401 26.0227 44.8627C26.0275 44.8659 26.0322 44.8692 26.037 44.8724C26.0504 44.8816 26.0637 44.8909 26.077 44.9002C26.114 44.9261 26.1507 44.9527 26.1869 44.9797C26.2125 44.9989 26.238 45.0184 26.2632 45.0381L26.2714 45.0445C26.281 45.0521 26.2906 45.0597 26.3001 45.0673C26.3272 45.0889 26.354 45.1109 26.3805 45.1331C26.3881 45.1394 26.3957 45.1458 26.4032 45.1522C26.4122 45.1599 26.4211 45.1675 26.43 45.1752C26.4404 45.1841 26.4508 45.1932 26.4612 45.2023C26.4697 45.2098 26.4781 45.2173 26.4865 45.2248C26.4926 45.2302 26.4987 45.2357 26.5048 45.2411C26.5537 45.2853 26.6016 45.3305 26.6485 45.3768C26.6551 45.3832 26.6616 45.3897 26.6681 45.3962C26.6733 45.4013 26.6786 45.4067 26.684 45.4121C26.7103 45.4386 26.7362 45.4654 26.7619 45.4926L26.7674 45.4985C26.8306 45.5658 26.8918 45.635 26.9507 45.706C26.9581 45.7149 26.9656 45.724 26.973 45.733C26.9815 45.7435 26.99 45.7539 26.9983 45.7644C27.0051 45.7728 27.0118 45.7812 27.0185 45.7897C27.0266 45.8 27.0348 45.8104 27.0429 45.8209C27.0494 45.8292 27.0558 45.8376 27.0621 45.8459C27.0668 45.8519 27.0714 45.8581 27.076 45.8642L27.0944 45.8886C27.0968 45.8918 27.0991 45.895 27.1015 45.8982C27.1256 45.9306 27.1491 45.9634 27.1723 45.9964C27.1911 46.0233 27.2096 46.0504 27.2278 46.0776C27.2356 46.0892 27.2433 46.1009 27.251 46.1127C27.2626 46.1304 27.2741 46.1482 27.2854 46.1661C27.3179 46.2174 27.3494 46.2694 27.3799 46.3221ZM5.50785 39.36C6.30584 38.8989 6.69062 37.9966 6.53218 37.1387C6.53066 37.1298 6.52897 37.121 6.52722 37.1122L6.53218 37.1387C6.52891 37.121 6.52542 37.1033 6.52169 37.0857L6.52722 37.1122C6.5235 37.0935 6.51953 37.0748 6.5153 37.0562L6.52169 37.0857C6.51787 37.0677 6.51381 37.0496 6.50951 37.0316L6.5153 37.0562C6.51107 37.0376 6.50659 37.019 6.50185 37.0005L6.50951 37.0316C6.50505 37.013 6.50033 36.9943 6.49534 36.9757L6.50185 37.0005C6.49661 36.98 6.49106 36.9595 6.48519 36.9391L6.49534 36.9757C6.49035 36.9571 6.4851 36.9386 6.47958 36.92L6.48519 36.9391C6.47675 36.9099 6.46766 36.8807 6.45793 36.8517C6.4525 36.8354 6.44682 36.8192 6.44093 36.8029C6.43506 36.7868 6.42898 36.7707 6.4227 36.7546L6.44093 36.8029C6.43313 36.7814 6.42497 36.76 6.41643 36.7387L6.4227 36.7546C6.41625 36.7381 6.40958 36.7216 6.40269 36.7052L6.41643 36.7387C6.40757 36.7165 6.39832 36.6945 6.38866 36.6725L6.40269 36.7052C6.3949 36.6866 6.38684 36.6682 6.37849 36.6498L6.38866 36.6725C6.38118 36.6555 6.37346 36.6385 6.36549 36.6216L6.37849 36.6498C6.36987 36.6308 6.36096 36.6119 6.35174 36.5931L6.36549 36.6216C6.35752 36.6047 6.34931 36.5879 6.34086 36.5711L6.35174 36.5931C6.34363 36.5765 6.33529 36.56 6.32671 36.5436L6.34086 36.5711C6.33211 36.5538 6.3231 36.5365 6.31382 36.5192L6.28313 36.4642C6.24488 36.3979 6.20346 36.3342 6.15916 36.2734C6.15291 36.2648 6.14655 36.2562 6.14013 36.2477L6.15916 36.2734C6.14736 36.2572 6.13536 36.2412 6.12316 36.2254L6.14013 36.2477C6.13044 36.2348 6.12062 36.222 6.11068 36.2094L6.12316 36.2254C6.09884 36.1939 6.07374 36.1633 6.04788 36.1334C6.04409 36.129 6.04023 36.1246 6.03636 36.1202L6.04788 36.1334C6.03711 36.121 6.02622 36.1087 6.0152 36.0965L6.03636 36.1202C6.01325 36.094 5.98957 36.0684 5.96535 36.0435C5.94483 36.0224 5.92382 36.0017 5.90243 35.9814C5.88494 35.965 5.86719 35.9488 5.84921 35.9329C5.84501 35.9291 5.84074 35.9254 5.83646 35.9217L5.84921 35.9329C5.8209 35.908 5.792 35.8839 5.76255 35.8606C5.76007 35.8584 5.75753 35.8564 5.75498 35.8544L5.76255 35.8606C5.10176 35.3382 4.16342 35.2412 3.38975 35.6883C2.37668 36.2737 2.02958 37.5701 2.61447 38.5841C3.19937 39.598 4.49478 39.9454 5.50785 39.36ZM44.4398 38.5841C45.0247 37.5701 44.6776 36.2737 43.6645 35.6883C42.8211 35.2009 41.782 35.3601 41.1201 36.0121C41.0986 36.0333 41.0774 36.0551 41.0567 36.0773C41.0519 36.0825 41.047 36.0878 41.0421 36.0932L41.0567 36.0773C41.0436 36.0914 41.0307 36.1057 41.0179 36.1201L41.0421 36.0932C41.0295 36.107 41.017 36.1211 41.0046 36.1354L41.0179 36.1201C41.0061 36.1336 40.9945 36.1471 40.983 36.1609L41.0046 36.1354C40.9918 36.1502 40.9792 36.1652 40.9667 36.1805L40.983 36.1609C40.9715 36.1746 40.9601 36.1886 40.9489 36.2027L40.9667 36.1805C40.9531 36.1972 40.9397 36.2142 40.9265 36.2314L40.9489 36.2027C40.9384 36.2159 40.928 36.2293 40.9177 36.2429L40.9265 36.2314C40.9158 36.2453 40.9054 36.2593 40.895 36.2735L40.9177 36.2429C40.9041 36.261 40.8907 36.2793 40.8775 36.2979L40.895 36.2735C40.8842 36.2884 40.8735 36.3034 40.863 36.3187L40.8775 36.2979C40.8398 36.3512 40.8043 36.4067 40.7711 36.4642C40.7606 36.4825 40.7503 36.5008 40.7404 36.5193C40.738 36.5237 40.7356 36.5282 40.7332 36.5327L40.7404 36.5193C40.7309 36.5369 40.7217 36.5546 40.7128 36.5724L40.7332 36.5327C40.7238 36.5506 40.7146 36.5685 40.7057 36.5865L40.7128 36.5724C40.7042 36.5894 40.6959 36.6065 40.6878 36.6237L40.7057 36.5865C40.6966 36.605 40.6877 36.6236 40.6792 36.6422L40.6878 36.6237C40.6789 36.6426 40.6704 36.6615 40.6621 36.6805L40.6792 36.6422C40.6694 36.6635 40.6601 36.6849 40.651 36.7064L40.6621 36.6805C40.656 36.6946 40.65 36.7088 40.6442 36.7229L40.651 36.7064C40.637 36.7398 40.624 36.7734 40.6118 36.8072C40.5983 36.8446 40.5859 36.8822 40.5747 36.92C40.5728 36.9264 40.5709 36.9328 40.5691 36.9392L40.5747 36.92C40.5692 36.9385 40.5639 36.9571 40.5589 36.9756L40.5691 36.9392C40.5632 36.9596 40.5576 36.9801 40.5524 37.0006L40.5589 36.9756C40.5539 36.9942 40.5492 37.0129 40.5447 37.0315L40.5524 37.0006C40.5477 37.0191 40.5432 37.0377 40.539 37.0563L40.5447 37.0315C40.5404 37.0495 40.5363 37.0676 40.5325 37.0856L40.539 37.0563C40.5348 37.0749 40.5308 37.0936 40.5271 37.1123L40.5325 37.0856C40.5288 37.1033 40.5252 37.1209 40.522 37.1387L40.5271 37.1123C40.3558 37.978 40.7402 38.8942 41.5464 39.36C42.5595 39.9454 43.8549 39.598 44.4398 38.5841ZM23.5271 50.6681C24.6969 50.6681 25.6452 49.719 25.6452 48.5483C25.6452 47.6309 25.063 46.8497 24.2483 46.5544C24.2434 46.5525 24.2385 46.5508 24.2335 46.549L24.2483 46.5544C24.232 46.5485 24.2156 46.5428 24.1991 46.5373L24.2335 46.549C24.2135 46.542 24.1934 46.5352 24.1731 46.5287L24.1991 46.5373C24.1829 46.5319 24.1666 46.5266 24.1503 46.5216L24.1731 46.5287C24.1601 46.5246 24.1471 46.5205 24.134 46.5166L24.1503 46.5216C24.0899 46.503 24.0283 46.4871 23.9658 46.4739C23.9562 46.4719 23.9466 46.4699 23.937 46.4681L23.9658 46.4739C23.9498 46.4705 23.9338 46.4674 23.9177 46.4644L23.937 46.4681C23.9193 46.4646 23.9016 46.4614 23.8838 46.4583L23.9177 46.4644C23.9002 46.4611 23.8825 46.458 23.8647 46.4552L23.8838 46.4583C23.8657 46.4553 23.8475 46.4524 23.8292 46.4498L23.8647 46.4552C23.8442 46.4519 23.8236 46.4489 23.8029 46.4462L23.8292 46.4498C23.8136 46.4476 23.7979 46.4455 23.7823 46.4436L23.8029 46.4462C23.7834 46.4436 23.7638 46.4414 23.7441 46.4394L23.7823 46.4436C23.7657 46.4416 23.7491 46.4398 23.7325 46.4382L23.7441 46.4394C23.7264 46.4376 23.7086 46.436 23.6908 46.4346L23.7325 46.4382C23.7115 46.4362 23.6904 46.4345 23.6692 46.4331L23.6908 46.4346C23.6739 46.4333 23.657 46.4322 23.64 46.4313L23.6692 46.4331C23.6439 46.4314 23.6185 46.4302 23.593 46.4294L23.64 46.4313C23.6026 46.4294 23.565 46.4284 23.5271 46.4284L23.469 46.4292C23.4663 46.4292 23.4636 46.4293 23.4609 46.4294L23.4691 46.4292C23.4508 46.4297 23.4326 46.4304 23.4145 46.4313L23.4609 46.4294C23.4351 46.4302 23.4095 46.4314 23.384 46.4331L23.4145 46.4313C23.3974 46.4322 23.3804 46.4333 23.3634 46.4346L23.384 46.4331C23.3632 46.4345 23.3424 46.4362 23.3218 46.4382L23.3634 46.4346C23.3456 46.436 23.3278 46.4376 23.3101 46.4394L23.3218 46.4382C23.3049 46.4398 23.288 46.4417 23.2712 46.4437L23.3101 46.4394C23.2906 46.4414 23.2712 46.4436 23.2519 46.4461L23.2712 46.4437C23.2558 46.4456 23.2404 46.4476 23.2251 46.4498L23.2519 46.4461C23.231 46.4488 23.2102 46.4519 23.1895 46.4552L23.2251 46.4498C23.2068 46.4524 23.1885 46.4552 23.1704 46.4583L23.1895 46.4552C23.1718 46.458 23.1542 46.4611 23.1366 46.4644L23.1704 46.4583C23.1526 46.4613 23.1348 46.4646 23.1172 46.468L23.1366 46.4644C23.1205 46.4674 23.1045 46.4705 23.0885 46.4739L23.1172 46.468C23.0492 46.4814 22.9823 46.498 22.9167 46.5177C22.9126 46.5189 22.9084 46.5202 22.9042 46.5215L22.9167 46.5177C22.9048 46.5213 22.8929 46.525 22.8811 46.5288L22.9042 46.5215C22.8878 46.5265 22.8714 46.5318 22.8551 46.5372L22.8811 46.5288C22.8608 46.5353 22.8407 46.5421 22.8207 46.5492L22.8551 46.5372C22.8387 46.5427 22.8223 46.5484 22.806 46.5543L22.8207 46.5492C22.77 46.5671 22.7202 46.5869 22.6714 46.6085C22.6686 46.6095 22.666 46.6107 22.6633 46.6118L22.6714 46.6085C21.9279 46.9375 21.409 47.6823 21.409 48.5483C21.409 49.719 22.3573 50.6681 23.5271 50.6681Z" fill="#0149FF"/>
<path fill-rule="evenodd" clip-rule="evenodd" d="M130.035 11.3438C139.086 11.3438 145.58 18.086 145.58 26.4197V26.5034C145.58 34.8371 139.002 41.663 129.952 41.663C120.901 41.663 114.407 34.9208 114.407 26.5872V26.5034C114.407 18.1698 120.985 11.3438 130.035 11.3438ZM72.659 11.4416C76.9231 11.4416 80.5601 12.7803 83.5283 15.1652L80.1839 20.0185C77.5919 18.2195 75.0418 17.1316 72.5753 17.1316C70.1088 17.1316 68.8129 18.2612 68.8129 19.6837V19.7674C68.8129 21.692 70.067 22.3195 75.1254 23.6165C81.0619 25.1646 84.4063 27.2984 84.4063 32.4026V32.4863C84.4063 38.3019 79.9749 41.5652 73.6623 41.5652C69.2309 41.5652 64.7578 40.0172 61.2461 36.8793L65.0504 32.3189C67.6841 34.4946 70.4433 35.8753 73.7876 35.8753C76.4214 35.8753 78.01 34.8292 78.01 33.1139V33.0302C78.01 31.3986 77.0067 30.5618 72.1155 29.3065C66.2209 27.8004 62.4167 26.1687 62.4167 20.3531V20.2694C62.4167 14.956 66.6808 11.4416 72.659 11.4416ZM199.523 11.8328V31.0123C199.523 38.1313 195.344 41.5652 189.158 41.5652C184.603 41.5652 181.594 39.5551 179.588 37.1682L183.642 32.6455C185.313 34.488 186.943 35.5769 188.991 35.5769C191.415 35.5769 192.92 34.1112 192.92 30.7191V18.3855L183.301 18.3857V11.8328H199.523ZM111.768 11.8328V17.7848H102.868V41.1741H96.4334V17.7848H87.5333V11.8328H111.768ZM164.44 11.8328C171.343 11.8328 175.484 15.4794 175.484 21.5153V21.5992C175.484 26.3357 172.932 29.3118 169.209 30.695L176.363 41.1741H168.833L162.557 31.7848H157.495V41.1741H151.053V11.8328H164.44ZM129.952 17.3098C124.754 17.3098 121.15 21.4051 121.15 26.4198V26.5034C121.15 31.518 124.838 35.697 130.035 35.697C135.233 35.697 138.837 31.6016 138.837 26.5869V26.5034C138.837 21.4887 135.149 17.3098 129.952 17.3098ZM163.887 17.701H157.502V26.1121H164.012C167.142 26.1121 168.936 24.4383 168.936 21.9694V21.8857C168.936 19.1238 167.016 17.701 163.887 17.701Z" fill="white"/>
</svg>